<svg width="313" height="203" viewBox="0 0 313 203" fill="none" xmlns="http://www.w3.org/2000/svg">
<g filter="url(#filter0_d_1_2)">
<rect x="46" y="32" width="235" height="129" rx="6" fill="#FFFDFD"/>
</g>
<path d="M84.108 150.028V149.696C84.324 149.696 84.4813 149.652 84.58 149.564C84.6813 149.476 84.732 149.323 84.732 149.104V147.28H85.08V149.104C85.08 149.285 85.0507 149.447 84.992 149.588C84.936 149.727 84.8373 149.835 84.696 149.912C84.5573 149.989 84.3613 150.028 84.108 150.028ZM87.2531 150.02C87.1305 150.02 87.0318 149.992 86.9571 149.936C86.8851 149.88 86.8345 149.811 86.8051 149.728C86.6745 149.843 86.5558 149.924 86.4491 149.972C86.3425 150.017 86.2358 150.04 86.1291 150.04C85.9558 150.04 85.8278 149.984 85.7451 149.872C85.6625 149.76 85.6211 149.623 85.6211 149.46C85.6211 149.351 85.6411 149.253 85.6811 149.168C85.7211 149.083 85.7891 149.016 85.8851 148.968C85.9811 148.917 86.1105 148.892 86.2731 148.892C86.3451 148.892 86.4238 148.897 86.5091 148.908C86.5945 148.916 86.6811 148.927 86.7691 148.94V148.672C86.7691 148.523 86.7358 148.421 86.6691 148.368C86.6051 148.312 86.5105 148.284 86.3851 148.284C86.2145 148.284 86.0238 148.331 85.8131 148.424L85.7091 148.152C85.8318 148.096 85.9491 148.053 86.0611 148.024C86.1731 147.995 86.2865 147.98 86.4011 147.98C86.5878 147.98 86.7305 148.011 86.8291 148.072C86.9278 148.133 86.9958 148.215 87.0331 148.316C87.0705 148.417 87.0891 148.528 87.0891 148.648V149.504C87.0891 149.565 87.1011 149.617 87.1251 149.66C87.1491 149.7 87.1971 149.72 87.2691 149.72H87.3131V150.02H87.2531ZM85.9451 149.456C85.9451 149.547 85.9665 149.62 86.0091 149.676C86.0518 149.732 86.1131 149.76 86.1931 149.76C86.2625 149.76 86.3425 149.74 86.4331 149.7C86.5238 149.657 86.6358 149.573 86.7691 149.448V149.196C86.5878 149.167 86.4278 149.152 86.2891 149.152C86.1665 149.152 86.0785 149.177 86.0251 149.228C85.9718 149.279 85.9451 149.355 85.9451 149.456ZM88.7298 148.288C88.6551 148.288 88.5671 148.307 88.4658 148.344C88.3671 148.381 88.2471 148.457 88.1058 148.572V150H87.7778V148.02H88.0898V148.296C88.2311 148.176 88.3591 148.093 88.4738 148.048C88.5911 148.003 88.7031 147.98 88.8098 147.98C88.9938 147.98 89.1338 148.039 89.2298 148.156C89.3284 148.271 89.3778 148.435 89.3778 148.648V150H89.0498V148.696C89.0498 148.424 88.9431 148.288 88.7298 148.288Z" fill="black" fill-opacity="0.48"/>
<path d="M60.224 142.432V142.144H61.344V142.432H60.224ZM61.2942 141.108V140.78H63.2262V141.108H62.4342V143.5H62.0862V141.108H61.2942ZM65.0053 142.792C65.0053 143.011 64.9373 143.191 64.8013 143.332C64.6653 143.471 64.4467 143.54 64.1453 143.54C64.0253 143.54 63.9 143.527 63.7693 143.5C63.6413 143.471 63.508 143.425 63.3693 143.364L63.4733 143.076C63.6067 143.129 63.7253 143.168 63.8293 143.192C63.936 143.216 64.0387 143.228 64.1373 143.228C64.3027 143.228 64.4307 143.193 64.5213 143.124C64.6147 143.055 64.6613 142.941 64.6613 142.784V142.72C64.6613 142.587 64.6227 142.48 64.5453 142.4C64.468 142.32 64.3493 142.28 64.1893 142.28H63.7893V141.976H64.1893C64.3413 141.976 64.4533 141.939 64.5253 141.864C64.5973 141.787 64.6333 141.683 64.6333 141.552V141.496C64.6333 141.339 64.5907 141.227 64.5053 141.16C64.42 141.091 64.3013 141.056 64.1493 141.056C64.056 141.056 63.96 141.068 63.8613 141.092C63.7627 141.113 63.6507 141.151 63.5253 141.204L63.4133 140.912C63.5467 140.851 63.6747 140.807 63.7973 140.78C63.9227 140.753 64.0427 140.74 64.1573 140.74C64.4453 140.74 64.6547 140.809 64.7853 140.948C64.916 141.087 64.9813 141.267 64.9813 141.488V141.544C64.9813 141.677 64.9493 141.795 64.8853 141.896C64.8213 141.995 64.7347 142.072 64.6253 142.128C64.7427 142.181 64.8347 142.26 64.9013 142.364C64.9707 142.465 65.0053 142.587 65.0053 142.728V142.792Z" fill="black" fill-opacity="0.48"/>
<path d="M58.224 128.932V128.644H59.344V128.932H58.224ZM60.9464 130C60.8184 129.856 60.6944 129.725 60.5744 129.608C60.4571 129.491 60.3357 129.377 60.2104 129.268C60.0877 129.159 59.9531 129.048 59.8064 128.936V128.668H60.4344C60.5677 128.668 60.6757 128.631 60.7584 128.556C60.8411 128.479 60.8877 128.373 60.8984 128.24H59.8064V127.972H60.8984C60.8877 127.839 60.8411 127.735 60.7584 127.66C60.6757 127.585 60.5677 127.548 60.4344 127.548H59.8064V127.28H61.5864V127.548H61.0304C61.1557 127.655 61.2251 127.796 61.2384 127.972H61.5864V128.24H61.2384C61.2277 128.451 61.1531 128.62 61.0144 128.748C60.8757 128.873 60.6824 128.936 60.4344 128.936H60.2824C60.4957 129.101 60.6891 129.267 60.8624 129.432C61.0357 129.597 61.2157 129.787 61.4024 130H60.9464ZM62.0025 128.584L62.0825 127.28H63.4345V127.6H62.3905L62.3425 128.38C62.4598 128.34 62.5865 128.32 62.7225 128.32C62.9731 128.32 63.1731 128.387 63.3225 128.52C63.4718 128.653 63.5465 128.851 63.5465 129.112V129.232C63.5465 129.469 63.4771 129.664 63.3385 129.816C63.1998 129.965 62.9771 130.04 62.6705 130.04C62.5505 130.04 62.4251 130.027 62.2945 130C62.1665 129.971 62.0331 129.925 61.8945 129.864L62.0025 129.576C62.1331 129.632 62.2518 129.672 62.3585 129.696C62.4651 129.717 62.5678 129.728 62.6665 129.728C62.8318 129.728 62.9611 129.691 63.0545 129.616C63.1478 129.539 63.1945 129.411 63.1945 129.232V129.112C63.1945 128.965 63.1518 128.848 63.0665 128.76C62.9838 128.672 62.8571 128.628 62.6865 128.628C62.6065 128.628 62.5278 128.639 62.4505 128.66C62.3731 128.679 62.2918 128.707 62.2065 128.744L62.0025 128.584ZM65.3298 130L64.7738 129.084C64.7231 129.135 64.6698 129.187 64.6138 129.24C64.5578 129.293 64.4991 129.347 64.4378 129.4V130H64.1098V127.04H64.4378V129.032C64.6111 128.864 64.7645 128.7 64.8978 128.54C65.0338 128.38 65.1578 128.207 65.2698 128.02H65.6458C65.5498 128.18 65.4511 128.328 65.3498 128.464C65.2511 128.597 65.1391 128.733 65.0138 128.872L65.7258 130H65.3298Z" fill="black" fill-opacity="0.48"/>
<path d="M58.224 114.932V114.644H59.344V114.932H58.224ZM60.9464 116C60.8184 115.856 60.6944 115.725 60.5744 115.608C60.4571 115.491 60.3357 115.377 60.2104 115.268C60.0877 115.159 59.9531 115.048 59.8064 114.936V114.668H60.4344C60.5677 114.668 60.6757 114.631 60.7584 114.556C60.8411 114.479 60.8877 114.373 60.8984 114.24H59.8064V113.972H60.8984C60.8877 113.839 60.8411 113.735 60.7584 113.66C60.6757 113.585 60.5677 113.548 60.4344 113.548H59.8064V113.28H61.5864V113.548H61.0304C61.1557 113.655 61.2251 113.796 61.2384 113.972H61.5864V114.24H61.2384C61.2277 114.451 61.1531 114.62 61.0144 114.748C60.8757 114.873 60.6824 114.936 60.4344 114.936H60.2824C60.4957 115.101 60.6891 115.267 60.8624 115.432C61.0357 115.597 61.2157 115.787 61.4024 116H60.9464ZM63.4705 116H61.9185V115.736C61.9185 115.536 61.9425 115.368 61.9905 115.232C62.0411 115.096 62.1078 114.984 62.1905 114.896C62.2758 114.805 62.3705 114.733 62.4745 114.68L62.7345 114.548C62.8571 114.484 62.9545 114.417 63.0265 114.348C63.1011 114.279 63.1385 114.179 63.1385 114.048V113.98C63.1385 113.831 63.0958 113.723 63.0105 113.656C62.9278 113.589 62.8051 113.556 62.6425 113.556C62.5518 113.556 62.4558 113.568 62.3545 113.592C62.2531 113.613 62.1411 113.651 62.0185 113.704L61.9065 113.412C62.0398 113.351 62.1678 113.307 62.2905 113.28C62.4158 113.253 62.5358 113.24 62.6505 113.24C62.9465 113.24 63.1585 113.309 63.2865 113.448C63.4145 113.584 63.4785 113.761 63.4785 113.98V114.048C63.4785 114.192 63.4505 114.312 63.3945 114.408C63.3411 114.504 63.2691 114.585 63.1785 114.652C63.0905 114.716 62.9958 114.773 62.8945 114.824L62.6345 114.96C62.5091 115.027 62.4158 115.119 62.3545 115.236C62.2958 115.353 62.2638 115.503 62.2585 115.684H63.4705V116ZM65.2751 116L64.7191 115.084C64.6685 115.135 64.6151 115.187 64.5591 115.24C64.5031 115.293 64.4445 115.347 64.3831 115.4V116H64.0551V113.04H64.3831V115.032C64.5565 114.864 64.7098 114.7 64.8431 114.54C64.9791 114.38 65.1031 114.207 65.2151 114.02H65.5911C65.4951 114.18 65.3965 114.328 65.2951 114.464C65.1965 114.597 65.0845 114.733 64.9591 114.872L65.6711 116H65.2751Z" fill="black" fill-opacity="0.48"/>
<path d="M62.38 102C62.252 101.856 62.128 101.725 62.008 101.608C61.8907 101.491 61.7693 101.377 61.644 101.268C61.5213 101.159 61.3867 101.048 61.24 100.936V100.668H61.868C62.0013 100.668 62.1093 100.631 62.192 100.556C62.2747 100.479 62.3213 100.373 62.332 100.24H61.24V99.972H62.332C62.3213 99.8387 62.2747 99.7347 62.192 99.66C62.1093 99.5853 62.0013 99.548 61.868 99.548H61.24V99.28H63.02V99.548H62.464C62.5893 99.6547 62.6587 99.796 62.672 99.972H63.02V100.24H62.672C62.6613 100.451 62.5867 100.62 62.448 100.748C62.3093 100.873 62.116 100.936 61.868 100.936H61.716C61.9293 101.101 62.1227 101.267 62.296 101.432C62.4693 101.597 62.6493 101.787 62.836 102H62.38ZM65.3121 100.34V100.936C65.3121 101.299 65.2307 101.573 65.0681 101.76C64.9054 101.947 64.6787 102.04 64.3881 102.04C64.0974 102.04 63.8707 101.947 63.7081 101.76C63.5481 101.573 63.4681 101.299 63.4681 100.936V100.34C63.4681 99.98 63.5494 99.7067 63.7121 99.52C63.8747 99.3333 64.1001 99.24 64.3881 99.24C64.6787 99.24 64.9054 99.3333 65.0681 99.52C65.2307 99.7067 65.3121 99.98 65.3121 100.34ZM64.9601 100.34C64.9601 100.063 64.9094 99.8627 64.8081 99.74C64.7094 99.6173 64.5694 99.556 64.3881 99.556C64.2094 99.556 64.0694 99.6173 63.9681 99.74C63.8694 99.8627 63.8201 100.063 63.8201 100.34V100.936C63.8201 101.211 63.8694 101.412 63.9681 101.54C64.0694 101.665 64.2094 101.728 64.3881 101.728C64.5694 101.728 64.7094 101.665 64.8081 101.54C64.9094 101.412 64.9601 101.211 64.9601 100.936V100.34Z" fill="black" fill-opacity="0.48"/>
<path d="M62.38 88C62.252 87.856 62.128 87.7253 62.008 87.608C61.8907 87.4907 61.7693 87.3773 61.644 87.268C61.5213 87.1587 61.3867 87.048 61.24 86.936V86.668H61.868C62.0013 86.668 62.1093 86.6307 62.192 86.556C62.2747 86.4787 62.3213 86.3733 62.332 86.24H61.24V85.972H62.332C62.3213 85.8387 62.2747 85.7347 62.192 85.66C62.1093 85.5853 62.0013 85.548 61.868 85.548H61.24V85.28H63.02V85.548H62.464C62.5893 85.6547 62.6587 85.796 62.672 85.972H63.02V86.24H62.672C62.6613 86.4507 62.5867 86.62 62.448 86.748C62.3093 86.8733 62.116 86.936 61.868 86.936H61.716C61.9293 87.1013 62.1227 87.2667 62.296 87.432C62.4693 87.5973 62.6493 87.7867 62.836 88H62.38ZM64.9041 88H63.3521V87.736C63.3521 87.536 63.3761 87.368 63.4241 87.232C63.4747 87.096 63.5414 86.984 63.6241 86.896C63.7094 86.8053 63.8041 86.7333 63.9081 86.68L64.1681 86.548C64.2907 86.484 64.3881 86.4173 64.4601 86.348C64.5347 86.2787 64.5721 86.1787 64.5721 86.048V85.98C64.5721 85.8307 64.5294 85.7227 64.4441 85.656C64.3614 85.5893 64.2387 85.556 64.0761 85.556C63.9854 85.556 63.8894 85.568 63.7881 85.592C63.6867 85.6133 63.5747 85.6507 63.4521 85.704L63.3401 85.412C63.4734 85.3507 63.6014 85.3067 63.7241 85.28C63.8494 85.2533 63.9694 85.24 64.0841 85.24C64.3801 85.24 64.5921 85.3093 64.7201 85.448C64.8481 85.584 64.9121 85.7613 64.9121 85.98V86.048C64.9121 86.192 64.8841 86.312 64.8281 86.408C64.7747 86.504 64.7027 86.5853 64.6121 86.652C64.5241 86.716 64.4294 86.7733 64.3281 86.824L64.0681 86.96C63.9427 87.0267 63.8494 87.1187 63.7881 87.236C63.7294 87.3533 63.6974 87.5027 63.6921 87.684H64.9041V88ZM66.7087 88L66.1527 87.084C66.1021 87.1347 66.0487 87.1867 65.9927 87.24C65.9367 87.2933 65.8781 87.3467 65.8167 87.4V88H65.4887V85.04H65.8167V87.032C65.9901 86.864 66.1434 86.7 66.2767 86.54C66.4127 86.38 66.5367 86.2067 66.6487 86.02H67.0247C66.9287 86.18 66.8301 86.328 66.7287 86.464C66.6301 86.5973 66.5181 86.7333 66.3927 86.872L67.1047 88H66.7087Z" fill="black" fill-opacity="0.48"/>
<path d="M62.38 74C62.252 73.856 62.128 73.7253 62.008 73.608C61.8907 73.4907 61.7693 73.3773 61.644 73.268C61.5213 73.1587 61.3867 73.048 61.24 72.936V72.668H61.868C62.0013 72.668 62.1093 72.6307 62.192 72.556C62.2747 72.4787 62.3213 72.3733 62.332 72.24H61.24V71.972H62.332C62.3213 71.8387 62.2747 71.7347 62.192 71.66C62.1093 71.5853 62.0013 71.548 61.868 71.548H61.24V71.28H63.02V71.548H62.464C62.5893 71.6547 62.6587 71.796 62.672 71.972H63.02V72.24H62.672C62.6613 72.4507 62.5867 72.62 62.448 72.748C62.3093 72.8733 62.116 72.936 61.868 72.936H61.716C61.9293 73.1013 62.1227 73.2667 62.296 73.432C62.4693 73.5973 62.6493 73.7867 62.836 74H62.38ZM63.4361 72.584L63.5161 71.28H64.8681V71.6H63.8241L63.7761 72.38C63.8934 72.34 64.0201 72.32 64.1561 72.32C64.4067 72.32 64.6067 72.3867 64.7561 72.52C64.9054 72.6533 64.9801 72.8507 64.9801 73.112V73.232C64.9801 73.4693 64.9107 73.664 64.7721 73.816C64.6334 73.9653 64.4107 74.04 64.1041 74.04C63.9841 74.04 63.8587 74.0267 63.7281 74C63.6001 73.9707 63.4667 73.9253 63.3281 73.864L63.4361 73.576C63.5667 73.632 63.6854 73.672 63.7921 73.696C63.8987 73.7173 64.0014 73.728 64.1001 73.728C64.2654 73.728 64.3947 73.6907 64.4881 73.616C64.5814 73.5387 64.6281 73.4107 64.6281 73.232V73.112C64.6281 72.9653 64.5854 72.848 64.5001 72.76C64.4174 72.672 64.2907 72.628 64.1201 72.628C64.0401 72.628 63.9614 72.6387 63.8841 72.66C63.8067 72.6787 63.7254 72.7067 63.6401 72.744L63.4361 72.584ZM66.7634 74L66.2074 73.084C66.1567 73.1347 66.1034 73.1867 66.0474 73.24C65.9914 73.2933 65.9327 73.3467 65.8714 73.4V74H65.5434V71.04H65.8714V73.032C66.0447 72.864 66.1981 72.7 66.3314 72.54C66.4674 72.38 66.5914 72.2067 66.7034 72.02H67.0794C66.9834 72.18 66.8847 72.328 66.7834 72.464C66.6847 72.5973 66.5727 72.7333 66.4474 72.872L67.1594 74H66.7634Z" fill="black" fill-opacity="0.48"/>
<path d="M62.38 60C62.252 59.856 62.128 59.7253 62.008 59.608C61.8907 59.4907 61.7693 59.3773 61.644 59.268C61.5213 59.1587 61.3867 59.048 61.24 58.936V58.668H61.868C62.0013 58.668 62.1093 58.6307 62.192 58.556C62.2747 58.4787 62.3213 58.3733 62.332 58.24H61.24V57.972H62.332C62.3213 57.8387 62.2747 57.7347 62.192 57.66C62.1093 57.5853 62.0013 57.548 61.868 57.548H61.24V57.28H63.02V57.548H62.464C62.5893 57.6547 62.6587 57.796 62.672 57.972H63.02V58.24H62.672C62.6613 58.4507 62.5867 58.62 62.448 58.748C62.3093 58.8733 62.116 58.936 61.868 58.936H61.716C61.9293 59.1013 62.1227 59.2667 62.296 59.432C62.4693 59.5973 62.6493 59.7867 62.836 60H62.38ZM65.1481 59.284C65.1481 59.4253 65.1161 59.5533 65.0521 59.668C64.9907 59.7827 64.8947 59.8733 64.7641 59.94C64.6334 60.0067 64.4654 60.04 64.2601 60.04C64.0627 60.04 63.9014 60.008 63.7761 59.944C63.6507 59.88 63.5587 59.796 63.5001 59.692C63.4414 59.5853 63.4121 59.4667 63.4121 59.336C63.4121 59.1947 63.4467 59.0667 63.5161 58.952C63.5854 58.8347 63.6974 58.7267 63.8521 58.628C63.7294 58.5587 63.6347 58.4707 63.5681 58.364C63.5014 58.2573 63.4681 58.1267 63.4681 57.972C63.4681 57.844 63.4974 57.7253 63.5561 57.616C63.6147 57.504 63.7041 57.4133 63.8241 57.344C63.9441 57.2747 64.0934 57.24 64.2721 57.24C64.4561 57.24 64.6081 57.272 64.7281 57.336C64.8507 57.4 64.9414 57.4853 65.0001 57.592C65.0587 57.6987 65.0881 57.8187 65.0881 57.952C65.0881 58.0827 65.0574 58.2013 64.9961 58.308C64.9374 58.4147 64.8387 58.5147 64.7001 58.608C64.8467 58.68 64.9574 58.7693 65.0321 58.876C65.1094 58.9827 65.1481 59.1187 65.1481 59.284ZM64.2161 58.428L64.4361 58.504C64.5561 58.4107 64.6374 58.3227 64.6801 58.24C64.7254 58.1573 64.7481 58.072 64.7481 57.984C64.7481 57.8507 64.7094 57.744 64.6321 57.664C64.5547 57.584 64.4374 57.544 64.2801 57.544C64.1414 57.544 64.0281 57.58 63.9401 57.652C63.8521 57.724 63.8081 57.8307 63.8081 57.972C63.8081 58.084 63.8387 58.176 63.9001 58.248C63.9641 58.3173 64.0694 58.3773 64.2161 58.428ZM63.7521 59.292C63.7521 59.428 63.7947 59.5373 63.8801 59.62C63.9681 59.7 64.0987 59.74 64.2721 59.74C64.4401 59.74 64.5707 59.7027 64.6641 59.628C64.7601 59.5507 64.8081 59.4413 64.8081 59.3C64.8081 59.1773 64.7734 59.0827 64.7041 59.016C64.6374 58.9467 64.5187 58.8827 64.3481 58.824L64.1161 58.744C63.9801 58.8427 63.8854 58.936 63.8321 59.024C63.7787 59.1093 63.7521 59.1987 63.7521 59.292ZM66.9665 60L66.4105 59.084C66.3599 59.1347 66.3065 59.1867 66.2505 59.24C66.1945 59.2933 66.1359 59.3467 66.0745 59.4V60H65.7465V57.04H66.0745V59.032C66.2479 58.864 66.4012 58.7 66.5345 58.54C66.6705 58.38 66.7945 58.2067 66.9065 58.02H67.2825C67.1865 58.18 67.0879 58.328 66.9865 58.464C66.8879 58.5973 66.7759 58.7333 66.6505 58.872L67.3625 60H66.9665Z" fill="black" fill-opacity="0.48"/>
<path d="M116.76 148.856H115.772V150H115.424V147.28H116.88V147.608H115.772V148.528H116.76V148.856ZM118.757 149.884C118.637 149.943 118.517 149.983 118.397 150.004C118.277 150.028 118.166 150.04 118.065 150.04C117.779 150.04 117.566 149.959 117.425 149.796C117.286 149.633 117.217 149.411 117.217 149.128V148.888C117.217 148.613 117.286 148.393 117.425 148.228C117.566 148.063 117.765 147.98 118.021 147.98C118.157 147.98 118.281 148.008 118.393 148.064C118.507 148.117 118.598 148.2 118.665 148.312C118.734 148.421 118.769 148.563 118.769 148.736C118.769 148.848 118.753 148.976 118.721 149.12H117.541V149.128C117.541 149.331 117.582 149.484 117.665 149.588C117.75 149.692 117.886 149.744 118.073 149.744C118.158 149.744 118.251 149.733 118.353 149.712C118.457 149.691 118.558 149.657 118.657 149.612L118.757 149.884ZM118.021 148.268C117.866 148.268 117.749 148.319 117.669 148.42C117.591 148.519 117.549 148.659 117.541 148.84H118.437C118.445 148.792 118.449 148.747 118.449 148.704C118.449 148.555 118.406 148.445 118.321 148.376C118.238 148.304 118.138 148.268 118.021 148.268ZM120.936 149.128C120.936 149.405 120.867 149.627 120.728 149.792C120.59 149.957 120.386 150.04 120.116 150.04C119.85 150.04 119.586 149.969 119.324 149.828V147.04H119.652V148.288C119.772 148.176 119.882 148.097 119.98 148.052C120.082 148.004 120.184 147.98 120.288 147.98C120.496 147.98 120.656 148.06 120.768 148.22C120.88 148.38 120.936 148.605 120.936 148.896V149.128ZM120.208 148.288C120.134 148.288 120.054 148.308 119.968 148.348C119.886 148.388 119.78 148.471 119.652 148.596V149.644C119.81 149.711 119.958 149.744 120.096 149.744C120.275 149.744 120.403 149.689 120.48 149.58C120.558 149.468 120.596 149.317 120.596 149.128V148.896C120.596 148.688 120.564 148.535 120.5 148.436C120.436 148.337 120.339 148.288 120.208 148.288Z" fill="black" fill-opacity="0.48"/>
<path d="M146.832 147.28L147.66 149.296L148.492 147.28H148.888V150H148.548V148.836L148.592 147.788L147.812 149.68H147.484L146.72 147.78L146.764 148.836V150H146.424V147.28H146.832ZM151.116 150.02C150.994 150.02 150.895 149.992 150.82 149.936C150.748 149.88 150.698 149.811 150.668 149.728C150.538 149.843 150.419 149.924 150.312 149.972C150.206 150.017 150.099 150.04 149.992 150.04C149.819 150.04 149.691 149.984 149.608 149.872C149.526 149.76 149.484 149.623 149.484 149.46C149.484 149.351 149.504 149.253 149.544 149.168C149.584 149.083 149.652 149.016 149.748 148.968C149.844 148.917 149.974 148.892 150.136 148.892C150.208 148.892 150.287 148.897 150.372 148.908C150.458 148.916 150.544 148.927 150.632 148.94V148.672C150.632 148.523 150.599 148.421 150.532 148.368C150.468 148.312 150.374 148.284 150.248 148.284C150.078 148.284 149.887 148.331 149.676 148.424L149.572 148.152C149.695 148.096 149.812 148.053 149.924 148.024C150.036 147.995 150.15 147.98 150.264 147.98C150.451 147.98 150.594 148.011 150.692 148.072C150.791 148.133 150.859 148.215 150.896 148.316C150.934 148.417 150.952 148.528 150.952 148.648V149.504C150.952 149.565 150.964 149.617 150.988 149.66C151.012 149.7 151.06 149.72 151.132 149.72H151.176V150.02H151.116ZM149.808 149.456C149.808 149.547 149.83 149.62 149.872 149.676C149.915 149.732 149.976 149.76 150.056 149.76C150.126 149.76 150.206 149.74 150.296 149.7C150.387 149.657 150.499 149.573 150.632 149.448V149.196C150.451 149.167 150.291 149.152 150.152 149.152C150.03 149.152 149.942 149.177 149.888 149.228C149.835 149.279 149.808 149.355 149.808 149.456ZM152.681 148.308C152.561 148.308 152.444 148.329 152.329 148.372C152.217 148.415 152.097 148.496 151.969 148.616V150H151.641V148.02H151.953V148.34C152.089 148.207 152.213 148.113 152.325 148.06C152.44 148.007 152.558 147.98 152.681 147.98V148.308Z" fill="black" fill-opacity="0.48"/>
<path d="M181.864 150L181.66 149.368H180.628L180.424 150H180.084L180.988 147.28H181.316L182.224 150H181.864ZM180.88 148.584L180.728 149.052H181.556L181.404 148.584L181.144 147.744L180.88 148.584ZM183.453 150.04C183.303 150.04 183.149 150.009 182.989 149.948V150.852H182.661V148.02H182.973V148.3C183.095 148.183 183.207 148.1 183.309 148.052C183.41 148.004 183.514 147.98 183.621 147.98C183.831 147.98 183.993 148.06 184.105 148.22C184.219 148.38 184.277 148.605 184.277 148.896V149.128C184.277 149.405 184.206 149.627 184.065 149.792C183.926 149.957 183.722 150.04 183.453 150.04ZM183.541 148.288C183.463 148.288 183.383 148.308 183.301 148.348C183.218 148.388 183.114 148.469 182.989 148.592V149.648C183.066 149.683 183.141 149.708 183.213 149.724C183.285 149.737 183.355 149.744 183.425 149.744C183.606 149.744 183.737 149.689 183.817 149.58C183.897 149.468 183.937 149.317 183.937 149.128V148.896C183.937 148.688 183.903 148.535 183.837 148.436C183.773 148.337 183.674 148.288 183.541 148.288ZM185.923 148.308C185.803 148.308 185.686 148.329 185.571 148.372C185.459 148.415 185.339 148.496 185.211 148.616V150H184.883V148.02H185.195V148.34C185.331 148.207 185.455 148.113 185.567 148.06C185.682 148.007 185.801 147.98 185.923 147.98V148.308Z" fill="black" fill-opacity="0.48"/>
<path d="M211.832 147.28L212.66 149.296L213.492 147.28H213.888V150H213.548V148.836L213.592 147.788L212.812 149.68H212.484L211.72 147.78L211.764 148.836V150H211.424V147.28H211.832ZM216.116 150.02C215.994 150.02 215.895 149.992 215.82 149.936C215.748 149.88 215.698 149.811 215.668 149.728C215.538 149.843 215.419 149.924 215.312 149.972C215.206 150.017 215.099 150.04 214.992 150.04C214.819 150.04 214.691 149.984 214.608 149.872C214.526 149.76 214.484 149.623 214.484 149.46C214.484 149.351 214.504 149.253 214.544 149.168C214.584 149.083 214.652 149.016 214.748 148.968C214.844 148.917 214.974 148.892 215.136 148.892C215.208 148.892 215.287 148.897 215.372 148.908C215.458 148.916 215.544 148.927 215.632 148.94V148.672C215.632 148.523 215.599 148.421 215.532 148.368C215.468 148.312 215.374 148.284 215.248 148.284C215.078 148.284 214.887 148.331 214.676 148.424L214.572 148.152C214.695 148.096 214.812 148.053 214.924 148.024C215.036 147.995 215.15 147.98 215.264 147.98C215.451 147.98 215.594 148.011 215.692 148.072C215.791 148.133 215.859 148.215 215.896 148.316C215.934 148.417 215.952 148.528 215.952 148.648V149.504C215.952 149.565 215.964 149.617 215.988 149.66C216.012 149.7 216.06 149.72 216.132 149.72H216.176V150.02H216.116ZM214.808 149.456C214.808 149.547 214.83 149.62 214.872 149.676C214.915 149.732 214.976 149.76 215.056 149.76C215.126 149.76 215.206 149.74 215.296 149.7C215.387 149.657 215.499 149.573 215.632 149.448V149.196C215.451 149.167 215.291 149.152 215.152 149.152C215.03 149.152 214.942 149.177 214.888 149.228C214.835 149.279 214.808 149.355 214.808 149.456ZM217.27 150.2C217.185 150.44 217.08 150.615 216.954 150.724C216.832 150.836 216.66 150.892 216.438 150.892V150.568C216.529 150.565 216.606 150.553 216.67 150.532C216.737 150.511 216.796 150.467 216.846 150.4C216.9 150.336 216.95 150.24 216.998 150.112L217.038 150.012L216.326 148.02H216.662L216.994 148.984L217.198 149.6L217.394 148.984L217.718 148.02H218.042L217.27 150.2Z" fill="black" fill-opacity="0.48"/>
<path d="M244.108 150.028V149.696C244.324 149.696 244.481 149.652 244.58 149.564C244.681 149.476 244.732 149.323 244.732 149.104V147.28H245.08V149.104C245.08 149.285 245.051 149.447 244.992 149.588C244.936 149.727 244.837 149.835 244.696 149.912C244.557 149.989 244.361 150.028 244.108 150.028ZM247.025 150V149.72C246.886 149.84 246.762 149.924 246.653 149.972C246.544 150.017 246.434 150.04 246.325 150.04C246.149 150.04 246.014 149.983 245.921 149.868C245.828 149.751 245.781 149.587 245.781 149.376V148.02H246.109V149.328C246.109 149.467 246.133 149.569 246.181 149.636C246.232 149.7 246.306 149.732 246.405 149.732C246.48 149.732 246.564 149.713 246.657 149.676C246.75 149.639 246.866 149.564 247.005 149.452V148.02H247.333V150H247.025ZM248.992 148.288C248.917 148.288 248.829 148.307 248.728 148.344C248.629 148.381 248.509 148.457 248.368 148.572V150H248.04V148.02H248.352V148.296C248.493 148.176 248.621 148.093 248.736 148.048C248.853 148.003 248.965 147.98 249.072 147.98C249.256 147.98 249.396 148.039 249.492 148.156C249.59 148.271 249.64 148.435 249.64 148.648V150H249.312V148.696C249.312 148.424 249.205 148.288 248.992 148.288Z" fill="black" fill-opacity="0.48"/>
<path d="M202.832 41.78L203.66 43.796L204.492 41.78H204.888V44.5H204.548V43.336L204.592 42.288L203.812 44.18H203.484L202.72 42.28L202.764 43.336V44.5H202.424V41.78H202.832ZM207.236 43.388V43.628C207.236 43.9107 207.163 44.1333 207.016 44.296C206.872 44.4587 206.666 44.54 206.396 44.54C206.13 44.54 205.923 44.4587 205.776 44.296C205.63 44.1333 205.556 43.9107 205.556 43.628V43.388C205.556 43.1107 205.628 42.8907 205.772 42.728C205.919 42.5627 206.127 42.48 206.396 42.48C206.666 42.48 206.872 42.5627 207.016 42.728C207.163 42.8907 207.236 43.1107 207.236 43.388ZM206.896 43.388C206.896 43.1987 206.854 43.0507 206.768 42.944C206.683 42.8347 206.559 42.78 206.396 42.78C206.236 42.78 206.112 42.8347 206.024 42.944C205.939 43.0507 205.896 43.1987 205.896 43.388V43.628C205.896 43.8253 205.939 43.9773 206.024 44.084C206.112 44.1907 206.236 44.244 206.396 44.244C206.559 44.244 206.683 44.1907 206.768 44.084C206.854 43.9773 206.896 43.8253 206.896 43.628V43.388ZM208.784 42.788C208.71 42.788 208.622 42.8067 208.52 42.844C208.422 42.8813 208.302 42.9573 208.16 43.072V44.5H207.832V42.52H208.144V42.796C208.286 42.676 208.414 42.5933 208.528 42.548C208.646 42.5027 208.758 42.48 208.864 42.48C209.048 42.48 209.188 42.5387 209.284 42.656C209.383 42.7707 209.432 42.9347 209.432 43.148V44.5H209.104V43.196C209.104 42.924 208.998 42.788 208.784 42.788ZM211.206 44.428C211.056 44.5027 210.898 44.54 210.73 44.54C210.586 44.54 210.472 44.5107 210.39 44.452C210.31 44.3933 210.252 44.3147 210.218 44.216C210.186 44.1173 210.17 44.008 210.17 43.888V42.808H209.826V42.52H210.17V41.968H210.498V42.52H211.146V42.808H210.498V43.876C210.498 44.0147 210.52 44.1107 210.566 44.164C210.614 44.2147 210.687 44.24 210.786 44.24C210.834 44.24 210.883 44.2347 210.934 44.224C210.987 44.2107 211.044 44.1893 211.106 44.16L211.206 44.428ZM212.589 42.788C212.514 42.788 212.426 42.8067 212.325 42.844C212.226 42.8813 212.106 42.9573 211.965 43.072V44.5H211.637V41.54H211.965V42.784C212.104 42.6667 212.229 42.5867 212.341 42.544C212.453 42.5013 212.562 42.48 212.669 42.48C212.853 42.48 212.993 42.5387 213.089 42.656C213.188 42.7707 213.237 42.9347 213.237 43.148V44.5H212.909V43.196C212.909 42.924 212.802 42.788 212.589 42.788ZM213.918 44.02V41.54H214.246V44.004C214.246 44.076 214.257 44.1307 214.278 44.168C214.302 44.2027 214.349 44.22 214.418 44.22H214.482V44.52H214.39C214.214 44.52 214.092 44.4733 214.022 44.38C213.953 44.2867 213.918 44.1667 213.918 44.02ZM215.653 44.7C215.568 44.94 215.462 45.1147 215.337 45.224C215.214 45.336 215.042 45.392 214.821 45.392V45.068C214.912 45.0653 214.989 45.0533 215.053 45.032C215.12 45.0107 215.178 44.9667 215.229 44.9C215.282 44.836 215.333 44.74 215.381 44.612L215.421 44.512L214.709 42.52H215.045L215.377 43.484L215.581 44.1L215.777 43.484L216.101 42.52H216.425L215.653 44.7Z" fill="#445D27"/>
<path d="M243.912 44.176V44.5H242.424V41.78H242.772V44.176H243.912ZM245.823 44.52C245.701 44.52 245.602 44.492 245.527 44.436C245.455 44.38 245.405 44.3107 245.375 44.228C245.245 44.3427 245.126 44.424 245.019 44.472C244.913 44.5173 244.806 44.54 244.699 44.54C244.526 44.54 244.398 44.484 244.315 44.372C244.233 44.26 244.191 44.1227 244.191 43.96C244.191 43.8507 244.211 43.7533 244.251 43.668C244.291 43.5827 244.359 43.516 244.455 43.468C244.551 43.4173 244.681 43.392 244.843 43.392C244.915 43.392 244.994 43.3973 245.079 43.408C245.165 43.416 245.251 43.4267 245.339 43.44V43.172C245.339 43.0227 245.306 42.9213 245.239 42.868C245.175 42.812 245.081 42.784 244.955 42.784C244.785 42.784 244.594 42.8307 244.383 42.924L244.279 42.652C244.402 42.596 244.519 42.5533 244.631 42.524C244.743 42.4947 244.857 42.48 244.971 42.48C245.158 42.48 245.301 42.5107 245.399 42.572C245.498 42.6333 245.566 42.7147 245.603 42.816C245.641 42.9173 245.659 43.028 245.659 43.148V44.004C245.659 44.0653 245.671 44.1173 245.695 44.16C245.719 44.2 245.767 44.22 245.839 44.22H245.883V44.52H245.823ZM244.515 43.956C244.515 44.0467 244.537 44.12 244.579 44.176C244.622 44.232 244.683 44.26 244.763 44.26C244.833 44.26 244.913 44.24 245.003 44.2C245.094 44.1573 245.206 44.0733 245.339 43.948V43.696C245.158 43.6667 244.998 43.652 244.859 43.652C244.737 43.652 244.649 43.6773 244.595 43.728C244.542 43.7787 244.515 43.8547 244.515 43.956ZM246.832 44.248C247.099 44.248 247.232 44.1573 247.232 43.976C247.232 43.8987 247.208 43.8373 247.16 43.792C247.112 43.7467 247.024 43.708 246.896 43.676L246.676 43.62C246.513 43.58 246.392 43.5107 246.312 43.412C246.232 43.3107 246.192 43.1907 246.192 43.052C246.192 42.9507 246.215 42.8573 246.26 42.772C246.305 42.684 246.377 42.6133 246.476 42.56C246.575 42.5067 246.703 42.48 246.86 42.48C246.961 42.48 247.064 42.492 247.168 42.516C247.275 42.5373 247.383 42.5747 247.492 42.628L247.388 42.904C247.193 42.816 247.017 42.772 246.86 42.772C246.628 42.772 246.512 42.8587 246.512 43.032C246.512 43.0987 246.533 43.156 246.576 43.204C246.619 43.252 246.699 43.2907 246.816 43.32L247.036 43.376C247.212 43.4187 247.341 43.488 247.424 43.584C247.507 43.68 247.548 43.804 247.548 43.956C247.548 44.0653 247.524 44.1653 247.476 44.256C247.431 44.344 247.356 44.4133 247.252 44.464C247.151 44.5147 247.013 44.54 246.84 44.54C246.725 44.54 246.611 44.528 246.496 44.504C246.384 44.48 246.268 44.4413 246.148 44.388L246.236 44.116C246.351 44.1613 246.455 44.1947 246.548 44.216C246.641 44.2373 246.736 44.248 246.832 44.248ZM249.159 44.428C249.009 44.5027 248.851 44.54 248.683 44.54C248.539 44.54 248.425 44.5107 248.343 44.452C248.263 44.3933 248.205 44.3147 248.171 44.216C248.139 44.1173 248.123 44.008 248.123 43.888V42.808H247.779V42.52H248.123V41.968H248.451V42.52H249.099V42.808H248.451V43.876C248.451 44.0147 248.473 44.1107 248.519 44.164C248.567 44.2147 248.64 44.24 248.739 44.24C248.787 44.24 248.836 44.2347 248.887 44.224C248.94 44.2107 248.997 44.1893 249.059 44.16L249.159 44.428ZM251.137 44.7C251.052 44.94 250.947 45.1147 250.821 45.224C250.699 45.336 250.527 45.392 250.305 45.392V45.068C250.396 45.0653 250.473 45.0533 250.537 45.032C250.604 45.0107 250.663 44.9667 250.713 44.9C250.767 44.836 250.817 44.74 250.865 44.612L250.905 44.512L250.193 42.52H250.529L250.861 43.484L251.065 44.1L251.261 43.484L251.585 42.52H251.909L251.137 44.7ZM253.745 44.384C253.625 44.4427 253.505 44.4827 253.385 44.504C253.265 44.528 253.154 44.54 253.053 44.54C252.768 44.54 252.554 44.4587 252.413 44.296C252.274 44.1333 252.205 43.9107 252.205 43.628V43.388C252.205 43.1133 252.274 42.8933 252.413 42.728C252.554 42.5627 252.753 42.48 253.009 42.48C253.145 42.48 253.269 42.508 253.381 42.564C253.496 42.6173 253.586 42.7 253.653 42.812C253.722 42.9213 253.757 43.0627 253.757 43.236C253.757 43.348 253.741 43.476 253.709 43.62H252.529V43.628C252.529 43.8307 252.57 43.984 252.653 44.088C252.738 44.192 252.874 44.244 253.061 44.244C253.146 44.244 253.24 44.2333 253.341 44.212C253.445 44.1907 253.546 44.1573 253.645 44.112L253.745 44.384ZM253.009 42.768C252.854 42.768 252.737 42.8187 252.657 42.92C252.58 43.0187 252.537 43.1587 252.529 43.34H253.425C253.433 43.292 253.437 43.2467 253.437 43.204C253.437 43.0547 253.394 42.9453 253.309 42.876C253.226 42.804 253.126 42.768 253.009 42.768ZM255.773 44.52C255.65 44.52 255.551 44.492 255.477 44.436C255.405 44.38 255.354 44.3107 255.325 44.228C255.194 44.3427 255.075 44.424 254.969 44.472C254.862 44.5173 254.755 44.54 254.649 44.54C254.475 44.54 254.347 44.484 254.265 44.372C254.182 44.26 254.141 44.1227 254.141 43.96C254.141 43.8507 254.161 43.7533 254.201 43.668C254.241 43.5827 254.309 43.516 254.405 43.468C254.501 43.4173 254.63 43.392 254.793 43.392C254.865 43.392 254.943 43.3973 255.029 43.408C255.114 43.416 255.201 43.4267 255.289 43.44V43.172C255.289 43.0227 255.255 42.9213 255.189 42.868C255.125 42.812 255.03 42.784 254.905 42.784C254.734 42.784 254.543 42.8307 254.333 42.924L254.229 42.652C254.351 42.596 254.469 42.5533 254.581 42.524C254.693 42.4947 254.806 42.48 254.921 42.48C255.107 42.48 255.25 42.5107 255.349 42.572C255.447 42.6333 255.515 42.7147 255.553 42.816C255.59 42.9173 255.609 43.028 255.609 43.148V44.004C255.609 44.0653 255.621 44.1173 255.645 44.16C255.669 44.2 255.717 44.22 255.789 44.22H255.833V44.52H255.773ZM254.465 43.956C254.465 44.0467 254.486 44.12 254.529 44.176C254.571 44.232 254.633 44.26 254.713 44.26C254.782 44.26 254.862 44.24 254.953 44.2C255.043 44.1573 255.155 44.0733 255.289 43.948V43.696C255.107 43.6667 254.947 43.652 254.809 43.652C254.686 43.652 254.598 43.6773 254.545 43.728C254.491 43.7787 254.465 43.8547 254.465 43.956ZM257.337 42.808C257.217 42.808 257.1 42.8293 256.985 42.872C256.873 42.9147 256.753 42.996 256.625 43.116V44.5H256.297V42.52H256.609V42.84C256.745 42.7067 256.869 42.6133 256.981 42.56C257.096 42.5067 257.215 42.48 257.337 42.48V42.808Z" fill="#445D27"/>
<path d="M58.742 45V40.24H59.379C59.8037 40.8467 60.1933 41.458 60.548 42.074C60.9073 42.6853 61.2433 43.3247 61.556 43.992L61.486 42.172V40.24H62.081V45H61.444C61.1173 44.3187 60.779 43.656 60.429 43.012C60.0837 42.3633 59.7057 41.731 59.295 41.115L59.337 43.054V45H58.742ZM65.962 44.797C65.752 44.8997 65.542 44.9697 65.332 45.007C65.122 45.049 64.9283 45.07 64.751 45.07C64.2517 45.07 63.8783 44.9277 63.631 44.643C63.3883 44.3583 63.267 43.9687 63.267 43.474V43.054C63.267 42.5733 63.3883 42.1883 63.631 41.899C63.8783 41.6097 64.226 41.465 64.674 41.465C64.912 41.465 65.129 41.514 65.325 41.612C65.5257 41.7053 65.6843 41.85 65.801 42.046C65.9223 42.2373 65.983 42.4847 65.983 42.788C65.983 42.984 65.955 43.208 65.899 43.46H63.834V43.474C63.834 43.8287 63.9063 44.097 64.051 44.279C64.2003 44.461 64.4383 44.552 64.765 44.552C64.9143 44.552 65.0777 44.5333 65.255 44.496C65.437 44.4587 65.6143 44.4003 65.787 44.321L65.962 44.797ZM64.674 41.969C64.4033 41.969 64.198 42.0577 64.058 42.235C63.9227 42.4077 63.848 42.6527 63.834 42.97H65.402C65.416 42.886 65.423 42.8067 65.423 42.732C65.423 42.4707 65.3483 42.2793 65.199 42.158C65.0543 42.032 64.8793 41.969 64.674 41.969ZM68.8804 44.874C68.619 45.0047 68.3414 45.07 68.0474 45.07C67.7954 45.07 67.597 45.0187 67.4524 44.916C67.3124 44.8133 67.212 44.6757 67.1514 44.503C67.0954 44.3303 67.0674 44.139 67.0674 43.929V42.039H66.4654V41.535H67.0674V40.569H67.6414V41.535H68.7754V42.039H67.6414V43.908C67.6414 44.1507 67.681 44.3187 67.7604 44.412C67.8444 44.5007 67.9727 44.545 68.1454 44.545C68.2294 44.545 68.3157 44.5357 68.4044 44.517C68.4977 44.4937 68.598 44.4563 68.7054 44.405L68.8804 44.874ZM71.6989 43.145C71.6989 43.5837 71.7853 43.922 71.9579 44.16C72.1353 44.3933 72.4059 44.51 72.7699 44.51C72.9286 44.51 73.0849 44.4913 73.2389 44.454C73.3929 44.4167 73.5773 44.3513 73.7919 44.258L73.9949 44.776C73.7663 44.8787 73.5493 44.9533 73.3439 45C73.1386 45.0467 72.9403 45.07 72.7489 45.07C72.1983 45.07 71.7806 44.8973 71.4959 44.552C71.2113 44.2067 71.0689 43.7377 71.0689 43.145V42.095C71.0689 41.5023 71.2113 41.0333 71.4959 40.688C71.7806 40.3427 72.1983 40.17 72.7489 40.17C72.9403 40.17 73.1386 40.1933 73.3439 40.24C73.5539 40.2867 73.7663 40.3613 73.9809 40.464L73.7849 40.989C73.4069 40.821 73.0686 40.737 72.7699 40.737C72.4059 40.737 72.1353 40.8537 71.9579 41.087C71.7853 41.3203 71.6989 41.6563 71.6989 42.095V43.145ZM77.445 43.054V43.474C77.445 43.9687 77.3166 44.3583 77.06 44.643C76.808 44.9277 76.4463 45.07 75.975 45.07C75.5083 45.07 75.1466 44.9277 74.89 44.643C74.6333 44.3583 74.505 43.9687 74.505 43.474V43.054C74.505 42.5687 74.631 42.1837 74.883 41.899C75.1396 41.6097 75.5036 41.465 75.975 41.465C76.4463 41.465 76.808 41.6097 77.06 41.899C77.3166 42.1837 77.445 42.5687 77.445 43.054ZM76.85 43.054C76.85 42.7227 76.7753 42.4637 76.626 42.277C76.4766 42.0857 76.2596 41.99 75.975 41.99C75.695 41.99 75.478 42.0857 75.324 42.277C75.1746 42.4637 75.1 42.7227 75.1 43.054V43.474C75.1 43.8193 75.1746 44.0853 75.324 44.272C75.478 44.4587 75.695 44.552 75.975 44.552C76.2596 44.552 76.4766 44.4587 76.626 44.272C76.7753 44.0853 76.85 43.8193 76.85 43.474V43.054ZM78.4811 44.16V39.82H79.0551V44.132C79.0551 44.258 79.0737 44.3537 79.1111 44.419C79.1531 44.4797 79.2347 44.51 79.3561 44.51H79.4681V45.035H79.3071C78.9991 45.035 78.7844 44.9533 78.6631 44.79C78.5417 44.6267 78.4811 44.4167 78.4811 44.16ZM80.3268 44.16V39.82H80.9008V44.132C80.9008 44.258 80.9194 44.3537 80.9568 44.419C80.9988 44.4797 81.0804 44.51 81.2018 44.51H81.3138V45.035H81.1528C80.8448 45.035 80.6301 44.9533 80.5088 44.79C80.3874 44.6267 80.3268 44.4167 80.3268 44.16ZM84.6925 44.797C84.4825 44.8997 84.2725 44.9697 84.0625 45.007C83.8525 45.049 83.6588 45.07 83.4815 45.07C82.9821 45.07 82.6088 44.9277 82.3615 44.643C82.1188 44.3583 81.9975 43.9687 81.9975 43.474V43.054C81.9975 42.5733 82.1188 42.1883 82.3615 41.899C82.6088 41.6097 82.9565 41.465 83.4045 41.465C83.6425 41.465 83.8595 41.514 84.0555 41.612C84.2561 41.7053 84.4148 41.85 84.5315 42.046C84.6528 42.2373 84.7135 42.4847 84.7135 42.788C84.7135 42.984 84.6855 43.208 84.6295 43.46H82.5645V43.474C82.5645 43.8287 82.6368 44.097 82.7815 44.279C82.9308 44.461 83.1688 44.552 83.4955 44.552C83.6448 44.552 83.8081 44.5333 83.9855 44.496C84.1675 44.4587 84.3448 44.4003 84.5175 44.321L84.6925 44.797ZM83.4045 41.969C83.1338 41.969 82.9285 42.0577 82.7885 42.235C82.6531 42.4077 82.5785 42.6527 82.5645 42.97H84.1325C84.1465 42.886 84.1535 42.8067 84.1535 42.732C84.1535 42.4707 84.0788 42.2793 83.9295 42.158C83.7848 42.032 83.6098 41.969 83.4045 41.969ZM86.1128 43.061V43.474C86.1128 43.8287 86.1782 44.097 86.3088 44.279C86.4395 44.4563 86.6472 44.545 86.9318 44.545C87.2118 44.545 87.5128 44.4727 87.8348 44.328L88.0098 44.811C87.6272 44.9837 87.2562 45.07 86.8968 45.07C86.4488 45.07 86.1082 44.9277 85.8748 44.643C85.6415 44.3583 85.5248 43.9687 85.5248 43.474V43.061C85.5248 42.5663 85.6415 42.1767 85.8748 41.892C86.1082 41.6073 86.4488 41.465 86.8968 41.465C87.0648 41.465 87.2375 41.4883 87.4148 41.535C87.5968 41.577 87.7788 41.6377 87.9608 41.717L87.7858 42.207C87.6318 42.1417 87.4825 42.0903 87.3378 42.053C87.1978 42.0157 87.0625 41.997 86.9318 41.997C86.6472 41.997 86.4395 42.088 86.3088 42.27C86.1782 42.4473 86.1128 42.711 86.1128 43.061ZM90.7554 44.874C90.494 45.0047 90.2164 45.07 89.9224 45.07C89.6704 45.07 89.472 45.0187 89.3274 44.916C89.1874 44.8133 89.087 44.6757 89.0264 44.503C88.9704 44.3303 88.9424 44.139 88.9424 43.929V42.039H88.3404V41.535H88.9424V40.569H89.5164V41.535H90.6504V42.039H89.5164V43.908C89.5164 44.1507 89.556 44.3187 89.6354 44.412C89.7194 44.5007 89.8477 44.545 90.0204 44.545C90.1044 44.545 90.1907 44.5357 90.2794 44.517C90.3727 44.4937 90.473 44.4563 90.5804 44.405L90.7554 44.874ZM92.1195 40.688H91.4755V40.044H92.1195V40.688ZM92.0845 45H91.5105V41.535H92.0845V45ZM96.0661 43.054V43.474C96.0661 43.9687 95.9377 44.3583 95.6811 44.643C95.4291 44.9277 95.0674 45.07 94.5961 45.07C94.1294 45.07 93.7677 44.9277 93.5111 44.643C93.2544 44.3583 93.1261 43.9687 93.1261 43.474V43.054C93.1261 42.5687 93.2521 42.1837 93.5041 41.899C93.7607 41.6097 94.1247 41.465 94.5961 41.465C95.0674 41.465 95.4291 41.6097 95.6811 41.899C95.9377 42.1837 96.0661 42.5687 96.0661 43.054ZM95.4711 43.054C95.4711 42.7227 95.3964 42.4637 95.2471 42.277C95.0977 42.0857 94.8807 41.99 94.5961 41.99C94.3161 41.99 94.0991 42.0857 93.9451 42.277C93.7957 42.4637 93.7211 42.7227 93.7211 43.054V43.474C93.7211 43.8193 93.7957 44.0853 93.9451 44.272C94.0991 44.4587 94.3161 44.552 94.5961 44.552C94.8807 44.552 95.0977 44.4587 95.2471 44.272C95.3964 44.0853 95.4711 43.8193 95.4711 43.474V43.054ZM98.7752 42.004C98.6445 42.004 98.4905 42.0367 98.3132 42.102C98.1405 42.1673 97.9305 42.3003 97.6832 42.501V45H97.1092V41.535H97.6552V42.018C97.9025 41.808 98.1265 41.6633 98.3272 41.584C98.5325 41.5047 98.7285 41.465 98.9152 41.465C99.2372 41.465 99.4822 41.5677 99.6502 41.773C99.8228 41.9737 99.9092 42.2607 99.9092 42.634V45H99.3352V42.718C99.3352 42.242 99.1485 42.004 98.7752 42.004Z" fill="#445D27"/>
<rect x="200.05" y="40.05" width="31.9" height="5.9" rx="0.95" stroke="black" stroke-width="0.1"/>
<rect x="240.05" y="40.05" width="31.9" height="5.9" rx="0.95" stroke="black" stroke-width="0.1"/>
<g clip-path="url(#clip0_1_2)">
<path fill-rule="evenodd" clip-rule="evenodd" d="M228.352 43.6928L227.173 42.75L227.468 42.5143L228.499 43.3393L229.53 42.5143L229.825 42.75L228.646 43.6928C228.607 43.7241 228.554 43.7416 228.499 43.7416C228.444 43.7416 228.391 43.7241 228.352 43.6928Z" fill="black"/>
</g>
<g clip-path="url(#clip1_1_2)">
<path fill-rule="evenodd" clip-rule="evenodd" d="M268.352 43.6928L267.173 42.75L267.468 42.5143L268.499 43.3393L269.53 42.5143L269.825 42.75L268.646 43.6928C268.607 43.7241 268.554 43.7416 268.499 43.7416C268.444 43.7416 268.391 43.7241 268.352 43.6928Z" fill="black"/>
</g>
<line x1="69" y1="58.75" x2="266" y2="58.75" stroke="#C6ADAD" stroke-opacity="0.39" stroke-width="0.5"/>
<line x1="69" y1="72.75" x2="266" y2="72.75" stroke="#C6ADAD" stroke-opacity="0.39" stroke-width="0.5"/>
<line x1="69" y1="86.75" x2="266" y2="86.75" stroke="#C6ADAD" stroke-opacity="0.39" stroke-width="0.5"/>
<line x1="69" y1="100.75" x2="266" y2="100.75" stroke="#C6ADAD" stroke-opacity="0.39" stroke-width="0.5"/>
<line x1="69" y1="114.75" x2="266" y2="114.75" stroke="#C6ADAD" stroke-opacity="0.39" stroke-width="0.5"/>
<line x1="69" y1="128.75" x2="266" y2="128.75" stroke="#C6ADAD" stroke-opacity="0.39" stroke-width="0.5"/>
<line x1="69" y1="142.75" x2="266" y2="142.75" stroke="#C6ADAD" stroke-opacity="0.39" stroke-width="0.5"/>
<path d="M75 65C75 63.3431 76.3431 62 78 62H90C91.6569 62 93 63.3431 93 65V101H75V65Z" fill="#FAA073"/>
<path d="M106 76C106 74.3431 107.343 73 109 73H121C122.657 73 124 74.3431 124 76V101H106V76Z" fill="#FA719A"/>
<path d="M124 109C124 110.657 122.657 112 121 112H109C107.343 112 106 110.657 106 109V101H124V109Z" fill="#FA719A" fill-opacity="0.5"/>
<path d="M189 119C189 120.657 187.657 122 186 122H174C172.343 122 171 120.657 171 119V101H189V119Z" fill="#FAA073" fill-opacity="0.5"/>
<path d="M137 92C137 90.3431 138.343 89 140 89H152C153.657 89 155 90.3431 155 92V101H137V92Z" fill="#FA719A"/>
<path d="M155 124C155 125.657 153.657 127 152 127H140C138.343 127 137 125.657 137 124V101H155V124Z" fill="#FA719A" fill-opacity="0.5"/>
<path d="M220 106C220 107.657 218.657 109 217 109H205C203.343 109 202 107.657 202 106V100H220V106Z" fill="#FA719A" fill-opacity="0.5"/>
<path d="M171 86C171 84.3431 172.343 83 174 83H186C187.657 83 189 84.3431 189 86V101H171V86Z" fill="#FAA073"/>
<path d="M202 69C202 67.3431 203.343 66 205 66H217C218.657 66 220 67.3431 220 69V101H202V69Z" fill="#FA719A"/>
<path d="M235 69C235 67.3431 236.343 66 238 66H250C251.657 66 253 67.3431 253 69V101H235V69Z" fill="#FAA073"/>
<g filter="url(#filter1_d_1_2)">
<rect x="19" y="137" width="108" height="34" rx="2" fill="#FFFDFD"/>
</g>
<path d="M28.864 145L28.66 144.368H27.628L27.424 145H27.084L27.988 142.28H28.316L29.224 145H28.864ZM27.88 143.584L27.728 144.052H28.556L28.404 143.584L28.144 142.744L27.88 143.584ZM30.1446 144.748C30.4113 144.748 30.5446 144.657 30.5446 144.476C30.5446 144.399 30.5206 144.337 30.4726 144.292C30.4246 144.247 30.3366 144.208 30.2086 144.176L29.9886 144.12C29.8259 144.08 29.7046 144.011 29.6246 143.912C29.5446 143.811 29.5046 143.691 29.5046 143.552C29.5046 143.451 29.5273 143.357 29.5726 143.272C29.6179 143.184 29.6899 143.113 29.7886 143.06C29.8873 143.007 30.0153 142.98 30.1726 142.98C30.2739 142.98 30.3766 142.992 30.4806 143.016C30.5873 143.037 30.6953 143.075 30.8046 143.128L30.7006 143.404C30.5059 143.316 30.3299 143.272 30.1726 143.272C29.9406 143.272 29.8246 143.359 29.8246 143.532C29.8246 143.599 29.8459 143.656 29.8886 143.704C29.9313 143.752 30.0113 143.791 30.1286 143.82L30.3486 143.876C30.5246 143.919 30.6539 143.988 30.7366 144.084C30.8193 144.18 30.8606 144.304 30.8606 144.456C30.8606 144.565 30.8366 144.665 30.7886 144.756C30.7433 144.844 30.6686 144.913 30.5646 144.964C30.4633 145.015 30.3259 145.04 30.1526 145.04C30.0379 145.04 29.9233 145.028 29.8086 145.004C29.6966 144.98 29.5806 144.941 29.4606 144.888L29.5486 144.616C29.6633 144.661 29.7673 144.695 29.8606 144.716C29.9539 144.737 30.0486 144.748 30.1446 144.748ZM31.8673 144.748C32.1339 144.748 32.2673 144.657 32.2673 144.476C32.2673 144.399 32.2433 144.337 32.1953 144.292C32.1473 144.247 32.0593 144.208 31.9313 144.176L31.7113 144.12C31.5486 144.08 31.4273 144.011 31.3473 143.912C31.2673 143.811 31.2273 143.691 31.2273 143.552C31.2273 143.451 31.2499 143.357 31.2952 143.272C31.3406 143.184 31.4126 143.113 31.5113 143.06C31.6099 143.007 31.7379 142.98 31.8953 142.98C31.9966 142.98 32.0993 142.992 32.2033 143.016C32.3099 143.037 32.4179 143.075 32.5273 143.128L32.4233 143.404C32.2286 143.316 32.0526 143.272 31.8953 143.272C31.6633 143.272 31.5473 143.359 31.5473 143.532C31.5473 143.599 31.5686 143.656 31.6113 143.704C31.6539 143.752 31.7339 143.791 31.8513 143.82L32.0713 143.876C32.2473 143.919 32.3766 143.988 32.4593 144.084C32.5419 144.18 32.5833 144.304 32.5833 144.456C32.5833 144.565 32.5593 144.665 32.5113 144.756C32.4659 144.844 32.3913 144.913 32.2873 144.964C32.1859 145.015 32.0486 145.04 31.8753 145.04C31.7606 145.04 31.6459 145.028 31.5312 145.004C31.4193 144.98 31.3033 144.941 31.1833 144.888L31.2713 144.616C31.3859 144.661 31.4899 144.695 31.5833 144.716C31.6766 144.737 31.7713 144.748 31.8673 144.748ZM33.4539 142.536H33.0859V142.168H33.4539V142.536ZM33.4339 145H33.1059V143.02H33.4339V145ZM35.7251 145.248C35.7251 145.443 35.6451 145.599 35.4851 145.716C35.3277 145.833 35.1104 145.892 34.8331 145.892C34.6944 145.892 34.5491 145.873 34.3971 145.836C34.2477 145.799 34.1064 145.739 33.9731 145.656L34.0851 145.4C34.2184 145.475 34.3464 145.527 34.4691 145.556C34.5944 145.588 34.7157 145.604 34.8331 145.604C35.0144 145.604 35.1544 145.575 35.2531 145.516C35.3517 145.457 35.4011 145.379 35.4011 145.28C35.4011 145.208 35.3771 145.152 35.3291 145.112C35.2811 145.075 35.2037 145.056 35.0971 145.056H34.6371C34.4637 145.056 34.3384 145.015 34.2611 144.932C34.1837 144.849 34.1451 144.759 34.1451 144.66C34.1451 144.591 34.1611 144.523 34.1931 144.456C34.2251 144.387 34.2704 144.319 34.3291 144.252C34.2357 144.196 34.1611 144.12 34.1051 144.024C34.0491 143.925 34.0211 143.807 34.0211 143.668C34.0211 143.516 34.0531 143.389 34.1171 143.288C34.1837 143.187 34.2717 143.111 34.3811 143.06C34.4904 143.007 34.6131 142.98 34.7491 142.98H34.8171C34.9104 142.98 34.9957 142.993 35.0731 143.02H35.7851V143.312L35.3531 143.252C35.4091 143.3 35.4544 143.36 35.4891 143.432C35.5237 143.501 35.5411 143.587 35.5411 143.688C35.5411 143.832 35.5077 143.953 35.4411 144.052C35.3771 144.151 35.2904 144.227 35.1811 144.28C35.0717 144.331 34.9504 144.356 34.8171 144.356H34.7491C34.7144 144.356 34.6811 144.355 34.6491 144.352C34.6171 144.347 34.5851 144.341 34.5531 144.336C34.4757 144.421 34.4371 144.505 34.4371 144.588C34.4371 144.695 34.5117 144.748 34.6611 144.748H35.1091C35.3011 144.748 35.4517 144.791 35.5611 144.876C35.6704 144.961 35.7251 145.085 35.7251 145.248ZM34.8171 144.072C34.9211 144.072 35.0131 144.039 35.0931 143.972C35.1731 143.905 35.2131 143.804 35.2131 143.668C35.2131 143.535 35.1731 143.435 35.0931 143.368C35.0131 143.299 34.9211 143.264 34.8171 143.264H34.7491C34.6424 143.264 34.5491 143.299 34.4691 143.368C34.3891 143.435 34.3491 143.535 34.3491 143.668C34.3491 143.804 34.3891 143.905 34.4691 143.972C34.5491 144.039 34.6424 144.072 34.7491 144.072H34.8171ZM37.1712 143.288C37.0965 143.288 37.0085 143.307 36.9072 143.344C36.8085 143.381 36.6885 143.457 36.5472 143.572V145H36.2192V143.02H36.5312V143.296C36.6725 143.176 36.8005 143.093 36.9152 143.048C37.0325 143.003 37.1445 142.98 37.2512 142.98C37.4352 142.98 37.5752 143.039 37.6712 143.156C37.7699 143.271 37.8192 143.435 37.8192 143.648V145H37.4912V143.696C37.4912 143.424 37.3845 143.288 37.1712 143.288ZM40.0723 143.888V144.128C40.0723 144.411 39.999 144.633 39.8523 144.796C39.7083 144.959 39.5017 145.04 39.2323 145.04C38.9657 145.04 38.759 144.959 38.6123 144.796C38.4657 144.633 38.3923 144.411 38.3923 144.128V143.888C38.3923 143.611 38.4643 143.391 38.6083 143.228C38.755 143.063 38.963 142.98 39.2323 142.98C39.5017 142.98 39.7083 143.063 39.8523 143.228C39.999 143.391 40.0723 143.611 40.0723 143.888ZM39.7323 143.888C39.7323 143.699 39.6897 143.551 39.6043 143.444C39.519 143.335 39.395 143.28 39.2323 143.28C39.0723 143.28 38.9483 143.335 38.8603 143.444C38.775 143.551 38.7323 143.699 38.7323 143.888V144.128C38.7323 144.325 38.775 144.477 38.8603 144.584C38.9483 144.691 39.0723 144.744 39.2323 144.744C39.395 144.744 39.519 144.691 39.6043 144.584C39.6897 144.477 39.7323 144.325 39.7323 144.128V143.888ZM41.7084 143.308C41.5884 143.308 41.4711 143.329 41.3564 143.372C41.2444 143.415 41.1244 143.496 40.9964 143.616V145H40.6684V143.02H40.9804V143.34C41.1164 143.207 41.2404 143.113 41.3524 143.06C41.4671 143.007 41.5857 142.98 41.7084 142.98V143.308Z" fill="black" fill-opacity="0.48"/>
<path d="M91.38 145C91.252 144.856 91.128 144.725 91.008 144.608C90.8907 144.491 90.7693 144.377 90.644 144.268C90.5213 144.159 90.3867 144.048 90.24 143.936V143.668H90.868C91.0013 143.668 91.1093 143.631 91.192 143.556C91.2747 143.479 91.3213 143.373 91.332 143.24H90.24V142.972H91.332C91.3213 142.839 91.2747 142.735 91.192 142.66C91.1093 142.585 91.0013 142.548 90.868 142.548H90.24V142.28H92.02V142.548H91.464C91.5893 142.655 91.6587 142.796 91.672 142.972H92.02V143.24H91.672C91.6613 143.451 91.5867 143.62 91.448 143.748C91.3093 143.873 91.116 143.936 90.868 143.936H90.716C90.9293 144.101 91.1227 144.267 91.296 144.432C91.4693 144.597 91.6493 144.787 91.836 145H91.38ZM94.1481 144.284C94.1481 144.425 94.1161 144.553 94.0521 144.668C93.9907 144.783 93.8947 144.873 93.7641 144.94C93.6334 145.007 93.4654 145.04 93.2601 145.04C93.0627 145.04 92.9014 145.008 92.7761 144.944C92.6507 144.88 92.5587 144.796 92.5001 144.692C92.4414 144.585 92.4121 144.467 92.4121 144.336C92.4121 144.195 92.4467 144.067 92.5161 143.952C92.5854 143.835 92.6974 143.727 92.8521 143.628C92.7294 143.559 92.6347 143.471 92.5681 143.364C92.5014 143.257 92.4681 143.127 92.4681 142.972C92.4681 142.844 92.4974 142.725 92.5561 142.616C92.6147 142.504 92.7041 142.413 92.8241 142.344C92.9441 142.275 93.0934 142.24 93.2721 142.24C93.4561 142.24 93.6081 142.272 93.7281 142.336C93.8507 142.4 93.9414 142.485 94.0001 142.592C94.0587 142.699 94.0881 142.819 94.0881 142.952C94.0881 143.083 94.0574 143.201 93.9961 143.308C93.9374 143.415 93.8387 143.515 93.7001 143.608C93.8467 143.68 93.9574 143.769 94.0321 143.876C94.1094 143.983 94.1481 144.119 94.1481 144.284ZM93.2161 143.428L93.4361 143.504C93.5561 143.411 93.6374 143.323 93.6801 143.24C93.7254 143.157 93.7481 143.072 93.7481 142.984C93.7481 142.851 93.7094 142.744 93.6321 142.664C93.5547 142.584 93.4374 142.544 93.2801 142.544C93.1414 142.544 93.0281 142.58 92.9401 142.652C92.8521 142.724 92.8081 142.831 92.8081 142.972C92.8081 143.084 92.8387 143.176 92.9001 143.248C92.9641 143.317 93.0694 143.377 93.2161 143.428ZM92.7521 144.292C92.7521 144.428 92.7947 144.537 92.8801 144.62C92.9681 144.7 93.0987 144.74 93.2721 144.74C93.4401 144.74 93.5707 144.703 93.6641 144.628C93.7601 144.551 93.8081 144.441 93.8081 144.3C93.8081 144.177 93.7734 144.083 93.7041 144.016C93.6374 143.947 93.5187 143.883 93.3481 143.824L93.1161 143.744C92.9801 143.843 92.8854 143.936 92.8321 144.024C92.7787 144.109 92.7521 144.199 92.7521 144.292ZM96.1345 145H94.5825V144.736C94.5825 144.536 94.6065 144.368 94.6545 144.232C94.7052 144.096 94.7719 143.984 94.8545 143.896C94.9399 143.805 95.0345 143.733 95.1385 143.68L95.3985 143.548C95.5212 143.484 95.6185 143.417 95.6905 143.348C95.7652 143.279 95.8025 143.179 95.8025 143.048V142.98C95.8025 142.831 95.7599 142.723 95.6745 142.656C95.5919 142.589 95.4692 142.556 95.3065 142.556C95.2159 142.556 95.1199 142.568 95.0185 142.592C94.9172 142.613 94.8052 142.651 94.6825 142.704L94.5705 142.412C94.7039 142.351 94.8319 142.307 94.9545 142.28C95.0799 142.253 95.1999 142.24 95.3145 142.24C95.6105 142.24 95.8225 142.309 95.9505 142.448C96.0785 142.584 96.1425 142.761 96.1425 142.98V143.048C96.1425 143.192 96.1145 143.312 96.0585 143.408C96.0052 143.504 95.9332 143.585 95.8425 143.652C95.7545 143.716 95.6599 143.773 95.5585 143.824L95.2985 143.96C95.1732 144.027 95.0799 144.119 95.0185 144.236C94.9599 144.353 94.9279 144.503 94.9225 144.684H96.1345V145ZM98.3112 143.944C98.3112 144.315 98.2272 144.591 98.0592 144.772C97.8912 144.951 97.6592 145.04 97.3632 145.04C97.2592 145.04 97.1472 145.028 97.0272 145.004C96.9099 144.98 96.7845 144.937 96.6512 144.876L96.7712 144.584C96.8885 144.635 96.9952 144.672 97.0912 144.696C97.1899 144.717 97.2779 144.728 97.3552 144.728C97.5445 144.728 97.6965 144.669 97.8112 144.552C97.9259 144.435 97.9832 144.232 97.9832 143.944V143.708C97.8872 143.791 97.7845 143.857 97.6752 143.908C97.5659 143.959 97.4499 143.984 97.3272 143.984C97.0925 143.984 96.9085 143.911 96.7752 143.764C96.6419 143.615 96.5752 143.419 96.5752 143.176V143.056C96.5752 142.899 96.6085 142.759 96.6752 142.636C96.7445 142.513 96.8419 142.417 96.9672 142.348C97.0952 142.276 97.2472 142.24 97.4232 142.24C97.7085 142.24 97.9272 142.337 98.0792 142.532C98.2339 142.727 98.3112 143 98.3112 143.352V143.944ZM96.9072 143.176C96.9072 143.328 96.9472 143.449 97.0272 143.54C97.1099 143.631 97.2245 143.676 97.3712 143.676C97.4832 143.676 97.5899 143.652 97.6912 143.604C97.7952 143.553 97.8925 143.485 97.9832 143.4V143.352C97.9832 143.083 97.9339 142.883 97.8352 142.752C97.7392 142.621 97.6005 142.556 97.4192 142.556C97.2592 142.556 97.1339 142.603 97.0432 142.696C96.9525 142.789 96.9072 142.909 96.9072 143.056V143.176ZM99.0988 144.636V144.712C99.0988 144.907 99.0748 145.092 99.0268 145.268C98.9788 145.444 98.8921 145.632 98.7668 145.832L98.5508 145.712C98.6174 145.584 98.6654 145.467 98.6948 145.36C98.7268 145.256 98.7468 145.147 98.7548 145.032C98.7654 144.92 98.7708 144.788 98.7708 144.636H99.0988ZM101.264 143.944C101.264 144.315 101.18 144.591 101.012 144.772C100.844 144.951 100.612 145.04 100.316 145.04C100.212 145.04 100.1 145.028 99.9803 145.004C99.863 144.98 99.7376 144.937 99.6043 144.876L99.7243 144.584C99.8416 144.635 99.9483 144.672 100.044 144.696C100.143 144.717 100.231 144.728 100.308 144.728C100.498 144.728 100.65 144.669 100.764 144.552C100.879 144.435 100.936 144.232 100.936 143.944V143.708C100.84 143.791 100.738 143.857 100.628 143.908C100.519 143.959 100.403 143.984 100.28 143.984C100.046 143.984 99.8616 143.911 99.7283 143.764C99.595 143.615 99.5283 143.419 99.5283 143.176V143.056C99.5283 142.899 99.5616 142.759 99.6283 142.636C99.6976 142.513 99.795 142.417 99.9203 142.348C100.048 142.276 100.2 142.24 100.376 142.24C100.662 142.24 100.88 142.337 101.032 142.532C101.187 142.727 101.264 143 101.264 143.352V143.944ZM99.8603 143.176C99.8603 143.328 99.9003 143.449 99.9803 143.54C100.063 143.631 100.178 143.676 100.324 143.676C100.436 143.676 100.543 143.652 100.644 143.604C100.748 143.553 100.846 143.485 100.936 143.4V143.352C100.936 143.083 100.887 142.883 100.788 142.752C100.692 142.621 100.554 142.556 100.372 142.556C100.212 142.556 100.087 142.603 99.9963 142.696C99.9056 142.789 99.8603 142.909 99.8603 143.056V143.176ZM101.654 142.656L102.302 142.28H102.618V145H102.278V142.648L101.806 142.92L101.654 142.656ZM105.191 143.34V143.936C105.191 144.299 105.11 144.573 104.947 144.76C104.784 144.947 104.558 145.04 104.267 145.04C103.976 145.04 103.75 144.947 103.587 144.76C103.427 144.573 103.347 144.299 103.347 143.936V143.34C103.347 142.98 103.428 142.707 103.591 142.52C103.754 142.333 103.979 142.24 104.267 142.24C104.558 142.24 104.784 142.333 104.947 142.52C105.11 142.707 105.191 142.98 105.191 143.34ZM104.839 143.34C104.839 143.063 104.788 142.863 104.687 142.74C104.588 142.617 104.448 142.556 104.267 142.556C104.088 142.556 103.948 142.617 103.847 142.74C103.748 142.863 103.699 143.063 103.699 143.34V143.936C103.699 144.211 103.748 144.412 103.847 144.54C103.948 144.665 104.088 144.728 104.267 144.728C104.448 144.728 104.588 144.665 104.687 144.54C104.788 144.412 104.839 144.211 104.839 143.936V143.34ZM108.287 143.888V144.128C108.287 144.411 108.214 144.633 108.067 144.796C107.923 144.959 107.717 145.04 107.447 145.04C107.181 145.04 106.974 144.959 106.827 144.796C106.681 144.633 106.607 144.411 106.607 144.128V143.888C106.607 143.611 106.679 143.391 106.823 143.228C106.97 143.063 107.178 142.98 107.447 142.98C107.717 142.98 107.923 143.063 108.067 143.228C108.214 143.391 108.287 143.611 108.287 143.888ZM107.947 143.888C107.947 143.699 107.905 143.551 107.819 143.444C107.734 143.335 107.61 143.28 107.447 143.28C107.287 143.28 107.163 143.335 107.075 143.444C106.99 143.551 106.947 143.699 106.947 143.888V144.128C106.947 144.325 106.99 144.477 107.075 144.584C107.163 144.691 107.287 144.744 107.447 144.744C107.61 144.744 107.734 144.691 107.819 144.584C107.905 144.477 107.947 144.325 107.947 144.128V143.888ZM109.923 143.308H109.275V145H108.947V143.308H108.603V143.02H108.947V142.692C108.947 142.569 108.967 142.456 109.007 142.352C109.05 142.245 109.118 142.16 109.211 142.096C109.305 142.032 109.429 142 109.583 142C109.661 142 109.742 142.009 109.827 142.028C109.915 142.044 109.997 142.069 110.071 142.104L109.979 142.38C109.843 142.327 109.725 142.3 109.623 142.3C109.511 142.3 109.425 142.331 109.363 142.392C109.305 142.453 109.275 142.552 109.275 142.688V143.02H109.923V143.308ZM112.181 145C112.053 144.856 111.929 144.725 111.809 144.608C111.691 144.491 111.57 144.377 111.445 144.268C111.322 144.159 111.187 144.048 111.041 143.936V143.668H111.669C111.802 143.668 111.91 143.631 111.993 143.556C112.075 143.479 112.122 143.373 112.133 143.24H111.041V142.972H112.133C112.122 142.839 112.075 142.735 111.993 142.66C111.91 142.585 111.802 142.548 111.669 142.548H111.041V142.28H112.821V142.548H112.265C112.39 142.655 112.459 142.796 112.473 142.972H112.821V143.24H112.473C112.462 143.451 112.387 143.62 112.249 143.748C112.11 143.873 111.917 143.936 111.669 143.936H111.517C111.73 144.101 111.923 144.267 112.097 144.432C112.27 144.597 112.45 144.787 112.637 145H112.181ZM113.041 142.656L113.689 142.28H114.005V145H113.665V142.648L113.193 142.92L113.041 142.656ZM115.262 142.28L116.09 144.296L116.922 142.28H117.318V145H116.978V143.836L117.022 142.788L116.242 144.68H115.914L115.15 142.78L115.194 143.836V145H114.854V142.28H115.262Z" fill="black" fill-opacity="0.48"/>
<path d="M91.38 159C91.252 158.856 91.128 158.725 91.008 158.608C90.8907 158.491 90.7693 158.377 90.644 158.268C90.5213 158.159 90.3867 158.048 90.24 157.936V157.668H90.868C91.0013 157.668 91.1093 157.631 91.192 157.556C91.2747 157.479 91.3213 157.373 91.332 157.24H90.24V156.972H91.332C91.3213 156.839 91.2747 156.735 91.192 156.66C91.1093 156.585 91.0013 156.548 90.868 156.548H90.24V156.28H92.02V156.548H91.464C91.5893 156.655 91.6587 156.796 91.672 156.972H92.02V157.24H91.672C91.6613 157.451 91.5867 157.62 91.448 157.748C91.3093 157.873 91.116 157.936 90.868 157.936H90.716C90.9293 158.101 91.1227 158.267 91.296 158.432C91.4693 158.597 91.6493 158.787 91.836 159H91.38ZM92.2401 156.656L92.8881 156.28H93.2041V159H92.8641V156.648L92.3921 156.92L92.2401 156.656ZM95.3689 159H93.8169V158.736C93.8169 158.536 93.8409 158.368 93.8889 158.232C93.9396 158.096 94.0062 157.984 94.0889 157.896C94.1742 157.805 94.2689 157.733 94.3729 157.68L94.6329 157.548C94.7556 157.484 94.8529 157.417 94.9249 157.348C94.9996 157.279 95.0369 157.179 95.0369 157.048V156.98C95.0369 156.831 94.9942 156.723 94.9089 156.656C94.8262 156.589 94.7036 156.556 94.5409 156.556C94.4502 156.556 94.3542 156.568 94.2529 156.592C94.1516 156.613 94.0396 156.651 93.9169 156.704L93.8049 156.412C93.9382 156.351 94.0662 156.307 94.1889 156.28C94.3142 156.253 94.4342 156.24 94.5489 156.24C94.8449 156.24 95.0569 156.309 95.1849 156.448C95.3129 156.584 95.3769 156.761 95.3769 156.98V157.048C95.3769 157.192 95.3489 157.312 95.2929 157.408C95.2396 157.504 95.1676 157.585 95.0769 157.652C94.9889 157.716 94.8942 157.773 94.7929 157.824L94.5329 157.96C94.4076 158.027 94.3142 158.119 94.2529 158.236C94.1942 158.353 94.1622 158.503 94.1569 158.684H95.3689V159ZM97.5856 158.284C97.5856 158.425 97.5536 158.553 97.4896 158.668C97.4282 158.783 97.3322 158.873 97.2016 158.94C97.0709 159.007 96.9029 159.04 96.6976 159.04C96.5002 159.04 96.3389 159.008 96.2136 158.944C96.0882 158.88 95.9962 158.796 95.9376 158.692C95.8789 158.585 95.8496 158.467 95.8496 158.336C95.8496 158.195 95.8842 158.067 95.9536 157.952C96.0229 157.835 96.1349 157.727 96.2896 157.628C96.1669 157.559 96.0722 157.471 96.0056 157.364C95.9389 157.257 95.9056 157.127 95.9056 156.972C95.9056 156.844 95.9349 156.725 95.9936 156.616C96.0522 156.504 96.1416 156.413 96.2616 156.344C96.3816 156.275 96.5309 156.24 96.7096 156.24C96.8936 156.24 97.0456 156.272 97.1656 156.336C97.2882 156.4 97.3789 156.485 97.4376 156.592C97.4962 156.699 97.5256 156.819 97.5256 156.952C97.5256 157.083 97.4949 157.201 97.4336 157.308C97.3749 157.415 97.2762 157.515 97.1376 157.608C97.2842 157.68 97.3949 157.769 97.4696 157.876C97.5469 157.983 97.5856 158.119 97.5856 158.284ZM96.6536 157.428L96.8736 157.504C96.9936 157.411 97.0749 157.323 97.1176 157.24C97.1629 157.157 97.1856 157.072 97.1856 156.984C97.1856 156.851 97.1469 156.744 97.0696 156.664C96.9922 156.584 96.8749 156.544 96.7176 156.544C96.5789 156.544 96.4656 156.58 96.3776 156.652C96.2896 156.724 96.2456 156.831 96.2456 156.972C96.2456 157.084 96.2762 157.176 96.3376 157.248C96.4016 157.317 96.5069 157.377 96.6536 157.428ZM96.1896 158.292C96.1896 158.428 96.2322 158.537 96.3176 158.62C96.4056 158.7 96.5362 158.74 96.7096 158.74C96.8776 158.74 97.0082 158.703 97.1016 158.628C97.1976 158.551 97.2456 158.441 97.2456 158.3C97.2456 158.177 97.2109 158.083 97.1416 158.016C97.0749 157.947 96.9562 157.883 96.7856 157.824L96.5536 157.744C96.4176 157.843 96.3229 157.936 96.2696 158.024C96.2162 158.109 96.1896 158.199 96.1896 158.292ZM98.38 158.636V158.712C98.38 158.907 98.356 159.092 98.308 159.268C98.26 159.444 98.1734 159.632 98.048 159.832L97.832 159.712C97.8987 159.584 97.9467 159.467 97.976 159.36C98.008 159.256 98.028 159.147 98.036 159.032C98.0467 158.92 98.052 158.788 98.052 158.636H98.38ZM100.575 158.228C100.575 158.388 100.541 158.529 100.471 158.652C100.405 158.772 100.307 158.867 100.179 158.936C100.054 159.005 99.9033 159.04 99.7273 159.04C99.4393 159.04 99.218 158.944 99.0633 158.752C98.9113 158.557 98.8353 158.284 98.8353 157.932V157.34C98.8353 156.967 98.9193 156.691 99.0873 156.512C99.258 156.331 99.49 156.24 99.7833 156.24C99.8873 156.24 99.9993 156.253 100.119 156.28C100.239 156.304 100.366 156.347 100.499 156.408L100.375 156.7C100.261 156.647 100.154 156.609 100.055 156.588C99.9593 156.567 99.8727 156.556 99.7953 156.556C99.6033 156.556 99.45 156.615 99.3353 156.732C99.2233 156.849 99.1673 157.052 99.1673 157.34V157.572C99.2607 157.487 99.362 157.42 99.4713 157.372C99.5807 157.324 99.6967 157.3 99.8193 157.3C100.054 157.3 100.238 157.375 100.371 157.524C100.507 157.671 100.575 157.865 100.575 158.108V158.228ZM99.1673 157.932C99.1673 158.199 99.2153 158.399 99.3113 158.532C99.4073 158.663 99.546 158.728 99.7273 158.728C99.89 158.728 100.015 158.684 100.103 158.596C100.194 158.505 100.239 158.383 100.239 158.228V158.108C100.239 157.956 100.199 157.835 100.119 157.744C100.039 157.653 99.926 157.608 99.7793 157.608C99.6673 157.608 99.5593 157.632 99.4553 157.68C99.354 157.728 99.258 157.795 99.1673 157.88V157.932ZM102.933 157.34V157.936C102.933 158.299 102.852 158.573 102.689 158.76C102.526 158.947 102.3 159.04 102.009 159.04C101.718 159.04 101.492 158.947 101.329 158.76C101.169 158.573 101.089 158.299 101.089 157.936V157.34C101.089 156.98 101.17 156.707 101.333 156.52C101.496 156.333 101.721 156.24 102.009 156.24C102.3 156.24 102.526 156.333 102.689 156.52C102.852 156.707 102.933 156.98 102.933 157.34ZM102.581 157.34C102.581 157.063 102.53 156.863 102.429 156.74C102.33 156.617 102.19 156.556 102.009 156.556C101.83 156.556 101.69 156.617 101.589 156.74C101.49 156.863 101.441 157.063 101.441 157.34V157.936C101.441 158.211 101.49 158.412 101.589 158.54C101.69 158.665 101.83 158.728 102.009 158.728C102.19 158.728 102.33 158.665 102.429 158.54C102.53 158.412 102.581 158.211 102.581 157.936V157.34ZM104.978 159H103.426V158.736C103.426 158.536 103.45 158.368 103.498 158.232C103.549 158.096 103.616 157.984 103.698 157.896C103.784 157.805 103.878 157.733 103.982 157.68L104.242 157.548C104.365 157.484 104.462 157.417 104.534 157.348C104.609 157.279 104.646 157.179 104.646 157.048V156.98C104.646 156.831 104.604 156.723 104.518 156.656C104.436 156.589 104.313 156.556 104.15 156.556C104.06 156.556 103.964 156.568 103.862 156.592C103.761 156.613 103.649 156.651 103.526 156.704L103.414 156.412C103.548 156.351 103.676 156.307 103.798 156.28C103.924 156.253 104.044 156.24 104.158 156.24C104.454 156.24 104.666 156.309 104.794 156.448C104.922 156.584 104.986 156.761 104.986 156.98V157.048C104.986 157.192 104.958 157.312 104.902 157.408C104.849 157.504 104.777 157.585 104.686 157.652C104.598 157.716 104.504 157.773 104.402 157.824L104.142 157.96C104.017 158.027 103.924 158.119 103.862 158.236C103.804 158.353 103.772 158.503 103.766 158.684H104.978V159ZM108.002 157.888V158.128C108.002 158.411 107.929 158.633 107.782 158.796C107.638 158.959 107.431 159.04 107.162 159.04C106.895 159.04 106.689 158.959 106.542 158.796C106.395 158.633 106.322 158.411 106.322 158.128V157.888C106.322 157.611 106.394 157.391 106.538 157.228C106.685 157.063 106.893 156.98 107.162 156.98C107.431 156.98 107.638 157.063 107.782 157.228C107.929 157.391 108.002 157.611 108.002 157.888ZM107.662 157.888C107.662 157.699 107.619 157.551 107.534 157.444C107.449 157.335 107.325 157.28 107.162 157.28C107.002 157.28 106.878 157.335 106.79 157.444C106.705 157.551 106.662 157.699 106.662 157.888V158.128C106.662 158.325 106.705 158.477 106.79 158.584C106.878 158.691 107.002 158.744 107.162 158.744C107.325 158.744 107.449 158.691 107.534 158.584C107.619 158.477 107.662 158.325 107.662 158.128V157.888ZM109.638 157.308H108.99V159H108.662V157.308H108.318V157.02H108.662V156.692C108.662 156.569 108.682 156.456 108.722 156.352C108.765 156.245 108.833 156.16 108.926 156.096C109.019 156.032 109.143 156 109.298 156C109.375 156 109.457 156.009 109.542 156.028C109.63 156.044 109.711 156.069 109.786 156.104L109.694 156.38C109.558 156.327 109.439 156.3 109.338 156.3C109.226 156.3 109.139 156.331 109.078 156.392C109.019 156.453 108.99 156.552 108.99 156.688V157.02H109.638V157.308ZM111.896 159C111.768 158.856 111.644 158.725 111.524 158.608C111.406 158.491 111.285 158.377 111.16 158.268C111.037 158.159 110.902 158.048 110.756 157.936V157.668H111.384C111.517 157.668 111.625 157.631 111.708 157.556C111.79 157.479 111.837 157.373 111.848 157.24H110.756V156.972H111.848C111.837 156.839 111.79 156.735 111.708 156.66C111.625 156.585 111.517 156.548 111.384 156.548H110.756V156.28H112.536V156.548H111.98C112.105 156.655 112.174 156.796 112.188 156.972H112.536V157.24H112.188C112.177 157.451 112.102 157.62 111.964 157.748C111.825 157.873 111.632 157.936 111.384 157.936H111.232C111.445 158.101 111.638 158.267 111.812 158.432C111.985 158.597 112.165 158.787 112.352 159H111.896ZM112.756 156.656L113.404 156.28H113.72V159H113.38V156.648L112.908 156.92L112.756 156.656ZM114.977 156.28L115.805 158.296L116.637 156.28H117.033V159H116.693V157.836L116.737 156.788L115.957 158.68H115.629L114.865 156.78L114.909 157.836V159H114.569V156.28H114.977Z" fill="black" fill-opacity="0.48"/>
<path d="M28.864 159L28.66 158.368H27.628L27.424 159H27.084L27.988 156.28H28.316L29.224 159H28.864ZM27.88 157.584L27.728 158.052H28.556L28.404 157.584L28.144 156.744L27.88 157.584ZM30.1446 158.748C30.4113 158.748 30.5446 158.657 30.5446 158.476C30.5446 158.399 30.5206 158.337 30.4726 158.292C30.4246 158.247 30.3366 158.208 30.2086 158.176L29.9886 158.12C29.8259 158.08 29.7046 158.011 29.6246 157.912C29.5446 157.811 29.5046 157.691 29.5046 157.552C29.5046 157.451 29.5273 157.357 29.5726 157.272C29.6179 157.184 29.6899 157.113 29.7886 157.06C29.8873 157.007 30.0153 156.98 30.1726 156.98C30.2739 156.98 30.3766 156.992 30.4806 157.016C30.5873 157.037 30.6953 157.075 30.8046 157.128L30.7006 157.404C30.5059 157.316 30.3299 157.272 30.1726 157.272C29.9406 157.272 29.8246 157.359 29.8246 157.532C29.8246 157.599 29.8459 157.656 29.8886 157.704C29.9313 157.752 30.0113 157.791 30.1286 157.82L30.3486 157.876C30.5246 157.919 30.6539 157.988 30.7366 158.084C30.8193 158.18 30.8606 158.304 30.8606 158.456C30.8606 158.565 30.8366 158.665 30.7886 158.756C30.7433 158.844 30.6686 158.913 30.5646 158.964C30.4633 159.015 30.3259 159.04 30.1526 159.04C30.0379 159.04 29.9233 159.028 29.8086 159.004C29.6966 158.98 29.5806 158.941 29.4606 158.888L29.5486 158.616C29.6633 158.661 29.7673 158.695 29.8606 158.716C29.9539 158.737 30.0486 158.748 30.1446 158.748ZM31.8673 158.748C32.1339 158.748 32.2673 158.657 32.2673 158.476C32.2673 158.399 32.2433 158.337 32.1953 158.292C32.1473 158.247 32.0593 158.208 31.9313 158.176L31.7113 158.12C31.5486 158.08 31.4273 158.011 31.3473 157.912C31.2673 157.811 31.2273 157.691 31.2273 157.552C31.2273 157.451 31.2499 157.357 31.2952 157.272C31.3406 157.184 31.4126 157.113 31.5113 157.06C31.6099 157.007 31.7379 156.98 31.8953 156.98C31.9966 156.98 32.0993 156.992 32.2033 157.016C32.3099 157.037 32.4179 157.075 32.5273 157.128L32.4233 157.404C32.2286 157.316 32.0526 157.272 31.8953 157.272C31.6633 157.272 31.5473 157.359 31.5473 157.532C31.5473 157.599 31.5686 157.656 31.6113 157.704C31.6539 157.752 31.7339 157.791 31.8513 157.82L32.0713 157.876C32.2473 157.919 32.3766 157.988 32.4593 158.084C32.5419 158.18 32.5833 158.304 32.5833 158.456C32.5833 158.565 32.5593 158.665 32.5113 158.756C32.4659 158.844 32.3913 158.913 32.2873 158.964C32.1859 159.015 32.0486 159.04 31.8753 159.04C31.7606 159.04 31.6459 159.028 31.5312 159.004C31.4193 158.98 31.3033 158.941 31.1833 158.888L31.2713 158.616C31.3859 158.661 31.4899 158.695 31.5833 158.716C31.6766 158.737 31.7713 158.748 31.8673 158.748ZM33.4539 156.536H33.0859V156.168H33.4539V156.536ZM33.4339 159H33.1059V157.02H33.4339V159ZM35.7251 159.248C35.7251 159.443 35.6451 159.599 35.4851 159.716C35.3277 159.833 35.1104 159.892 34.8331 159.892C34.6944 159.892 34.5491 159.873 34.3971 159.836C34.2477 159.799 34.1064 159.739 33.9731 159.656L34.0851 159.4C34.2184 159.475 34.3464 159.527 34.4691 159.556C34.5944 159.588 34.7157 159.604 34.8331 159.604C35.0144 159.604 35.1544 159.575 35.2531 159.516C35.3517 159.457 35.4011 159.379 35.4011 159.28C35.4011 159.208 35.3771 159.152 35.3291 159.112C35.2811 159.075 35.2037 159.056 35.0971 159.056H34.6371C34.4637 159.056 34.3384 159.015 34.2611 158.932C34.1837 158.849 34.1451 158.759 34.1451 158.66C34.1451 158.591 34.1611 158.523 34.1931 158.456C34.2251 158.387 34.2704 158.319 34.3291 158.252C34.2357 158.196 34.1611 158.12 34.1051 158.024C34.0491 157.925 34.0211 157.807 34.0211 157.668C34.0211 157.516 34.0531 157.389 34.1171 157.288C34.1837 157.187 34.2717 157.111 34.3811 157.06C34.4904 157.007 34.6131 156.98 34.7491 156.98H34.8171C34.9104 156.98 34.9957 156.993 35.0731 157.02H35.7851V157.312L35.3531 157.252C35.4091 157.3 35.4544 157.36 35.4891 157.432C35.5237 157.501 35.5411 157.587 35.5411 157.688C35.5411 157.832 35.5077 157.953 35.4411 158.052C35.3771 158.151 35.2904 158.227 35.1811 158.28C35.0717 158.331 34.9504 158.356 34.8171 158.356H34.7491C34.7144 158.356 34.6811 158.355 34.6491 158.352C34.6171 158.347 34.5851 158.341 34.5531 158.336C34.4757 158.421 34.4371 158.505 34.4371 158.588C34.4371 158.695 34.5117 158.748 34.6611 158.748H35.1091C35.3011 158.748 35.4517 158.791 35.5611 158.876C35.6704 158.961 35.7251 159.085 35.7251 159.248ZM34.8171 158.072C34.9211 158.072 35.0131 158.039 35.0931 157.972C35.1731 157.905 35.2131 157.804 35.2131 157.668C35.2131 157.535 35.1731 157.435 35.0931 157.368C35.0131 157.299 34.9211 157.264 34.8171 157.264H34.7491C34.6424 157.264 34.5491 157.299 34.4691 157.368C34.3891 157.435 34.3491 157.535 34.3491 157.668C34.3491 157.804 34.3891 157.905 34.4691 157.972C34.5491 158.039 34.6424 158.072 34.7491 158.072H34.8171ZM37.1712 157.288C37.0965 157.288 37.0085 157.307 36.9072 157.344C36.8085 157.381 36.6885 157.457 36.5472 157.572V159H36.2192V157.02H36.5312V157.296C36.6725 157.176 36.8005 157.093 36.9152 157.048C37.0325 157.003 37.1445 156.98 37.2512 156.98C37.4352 156.98 37.5752 157.039 37.6712 157.156C37.7699 157.271 37.8192 157.435 37.8192 157.648V159H37.4912V157.696C37.4912 157.424 37.3845 157.288 37.1712 157.288ZM39.9403 158.884C39.8203 158.943 39.7003 158.983 39.5803 159.004C39.4603 159.028 39.3497 159.04 39.2483 159.04C38.963 159.04 38.7497 158.959 38.6083 158.796C38.4697 158.633 38.4003 158.411 38.4003 158.128V157.888C38.4003 157.613 38.4697 157.393 38.6083 157.228C38.7497 157.063 38.9483 156.98 39.2043 156.98C39.3403 156.98 39.4643 157.008 39.5763 157.064C39.691 157.117 39.7817 157.2 39.8483 157.312C39.9177 157.421 39.9523 157.563 39.9523 157.736C39.9523 157.848 39.9363 157.976 39.9043 158.12H38.7243V158.128C38.7243 158.331 38.7657 158.484 38.8483 158.588C38.9337 158.692 39.0697 158.744 39.2563 158.744C39.3417 158.744 39.435 158.733 39.5363 158.712C39.6403 158.691 39.7417 158.657 39.8403 158.612L39.9403 158.884ZM39.2043 157.268C39.0497 157.268 38.9323 157.319 38.8523 157.42C38.775 157.519 38.7323 157.659 38.7243 157.84H39.6203C39.6283 157.792 39.6323 157.747 39.6323 157.704C39.6323 157.555 39.5897 157.445 39.5043 157.376C39.4217 157.304 39.3217 157.268 39.2043 157.268ZM41.956 158.884C41.836 158.943 41.716 158.983 41.596 159.004C41.476 159.028 41.3653 159.04 41.264 159.04C40.9786 159.04 40.7653 158.959 40.624 158.796C40.4853 158.633 40.416 158.411 40.416 158.128V157.888C40.416 157.613 40.4853 157.393 40.624 157.228C40.7653 157.063 40.964 156.98 41.22 156.98C41.356 156.98 41.48 157.008 41.592 157.064C41.7066 157.117 41.7973 157.2 41.864 157.312C41.9333 157.421 41.968 157.563 41.968 157.736C41.968 157.848 41.952 157.976 41.92 158.12H40.74V158.128C40.74 158.331 40.7813 158.484 40.864 158.588C40.9493 158.692 41.0853 158.744 41.272 158.744C41.3573 158.744 41.4506 158.733 41.552 158.712C41.656 158.691 41.7573 158.657 41.856 158.612L41.956 158.884ZM41.22 157.268C41.0653 157.268 40.948 157.319 40.868 157.42C40.7906 157.519 40.748 157.659 40.74 157.84H41.636C41.644 157.792 41.648 157.747 41.648 157.704C41.648 157.555 41.6053 157.445 41.52 157.376C41.4373 157.304 41.3373 157.268 41.22 157.268Z" fill="black" fill-opacity="0.48"/>
<path d="M27 149H119" stroke="url(#paint0_linear_1_2)" stroke-width="2" stroke-linecap="round"/>
<path d="M27 163H119" stroke="url(#paint1_linear_1_2)" stroke-width="2" stroke-linecap="round"/>
<defs>
<filter id="filter0_d_1_2" x="35" y="25" width="257" height="151" filterUnits="userSpaceOnUse" color-interpolation-filters="sRGB">
<feFlood flood-opacity="0" result="BackgroundImageFix"/>
<feColorMatrix in="SourceAlpha" type="matrix" values="0 0 0 0 0 0 0 0 0 0 0 0 0 0 0 0 0 0 127 0" result="hardAlpha"/>
<feOffset dy="4"/>
<feGaussianBlur stdDeviation="5.5"/>
<feComposite in2="hardAlpha" operator="out"/>
<feColorMatrix type="matrix" values="0 0 0 0 0 0 0 0 0 0 0 0 0 0 0 0 0 0 0.25 0"/>
<feBlend mode="normal" in2="BackgroundImageFix" result="effect1_dropShadow_1_2"/>
<feBlend mode="normal" in="SourceGraphic" in2="effect1_dropShadow_1_2" result="shape"/>
</filter>
<filter id="filter1_d_1_2" x="16" y="134" width="116" height="42" filterUnits="userSpaceOnUse" color-interpolation-filters="sRGB">
<feFlood flood-opacity="0" result="BackgroundImageFix"/>
<feColorMatrix in="SourceAlpha" type="matrix" values="0 0 0 0 0 0 0 0 0 0 0 0 0 0 0 0 0 0 127 0" result="hardAlpha"/>
<feOffset dx="1" dy="1"/>
<feGaussianBlur stdDeviation="2"/>
<feComposite in2="hardAlpha" operator="out"/>
<feColorMatrix type="matrix" values="0 0 0 0 0 0 0 0 0 0 0 0 0 0 0 0 0 0 0.25 0"/>
<feBlend mode="normal" in2="BackgroundImageFix" result="effect1_dropShadow_1_2"/>
<feBlend mode="normal" in="SourceGraphic" in2="effect1_dropShadow_1_2" result="shape"/>
</filter>
<linearGradient id="paint0_linear_1_2" x1="27" y1="149.5" x2="119" y2="149.5" gradientUnits="userSpaceOnUse">
<stop offset="0.75" stop-color="#FA719A"/>
<stop offset="0.7501" stop-color="#FA719A" stop-opacity="0.5"/>
</linearGradient>
<linearGradient id="paint1_linear_1_2" x1="27" y1="163.5" x2="119" y2="163.5" gradientUnits="userSpaceOnUse">
<stop offset="0.8149" stop-color="#FAA073"/>
<stop offset="0.815" stop-color="#FAA073" stop-opacity="0.5"/>
</linearGradient>
<clipPath id="clip0_1_2">
<rect width="2" height="5" fill="white" transform="matrix(0 1 -1 0 231 42)"/>
</clipPath>
<clipPath id="clip1_1_2">
<rect width="2" height="5" fill="white" transform="matrix(0 1 -1 0 271 42)"/>
</clipPath>
</defs>
</svg>
